SplineFontDB: 3.2
FontName: ZhoGlyphRegular
FullName: ZhoGlyph Regular
FamilyName: ZhoGlyphRegular
Weight: Regular
Copyright: Copyright berka_1337 2021\nRevision 2022 amber_zoned_comix
Version: 2.0
ItalicAngle: -43.9
UnderlinePosition: -311
UnderlineWidth: 102
Ascent: 1706
Descent: 342
InvalidEm: 0
sfntRevision: 0x00010000
LayerCount: 3
Layer: 0 1 "Back" 1
Layer: 1 1 "Fore" 0
Layer: 2 0 "Back 2" 1
NeedsXUIDChange: 1
XUID: [1021 55 1565586817 3192]
UseXUID: 1
StyleMap: 0x0040
FSType: 4
OS2Version: 2
OS2_WeightWidthSlopeOnly: 0
OS2_UseTypoMetrics: 0
CreationTime: 1649950519
ModificationTime: 1673886810
PfmFamily: 81
TTFWeight: 400
TTFWidth: 5
LineGap: 0
VLineGap: 0
Panose: 0 0 4 0 0 0 0 0 0 0
OS2TypoAscent: 2048
OS2TypoAOffset: 0
OS2TypoDescent: 0
OS2TypoDOffset: 0
OS2TypoLinegap: 0
OS2WinAscent: 2048
OS2WinAOffset: 0
OS2WinDescent: 0
OS2WinDOffset: 0
HheadAscent: 2048
HheadAOffset: 0
HheadDescent: 0
HheadDOffset: 0
OS2SubXSize: 1024
OS2SubYSize: 1024
OS2SubXOff: 0
OS2SubYOff: 0
OS2SupXSize: 1024
OS2SupYSize: 1024
OS2SupXOff: 0
OS2SupYOff: 1024
OS2StrikeYSize: 102
OS2StrikeYPos: 409
OS2Vendor: 'FSTR'
OS2CodePages: 00000001.00000000
OS2UnicodeRanges: 00000001.00000000.00000000.00000000
MarkAttachClasses: 1
DEI: 91125
ShortTable: maxp 16
  1
  0
  60
  85
  5
  0
  0
  2
  0
  0
  0
  0
  0
  0
  0
  0
EndShort
LangName: 1033 "" "" "" "" "" "1.0" "" "FontStruct is a trademark of FontStruct.com" "https://fontstruct.com" "berka_1337" "+IBwA-ZhoGlyph+IB0A was built with FontStruct+AAoA" "https://fontstruct.com/fontstructions/show/1984638/zhoglyph" "https://fontstruct.com/fontstructors/show/1694544/berka-1337" "All Rights Reserved" "" "" "" "" "" "Five big quacking zephyrs jolt my wax bed"
Encoding: UnicodeBmp
UnicodeInterp: none
NameList: AGL For New Fonts
DisplaySize: -48
AntiAlias: 1
FitToEm: 0
WinInfo: 7714 38 12
BeginPrivate: 0
EndPrivate

StartChar: .notdef
Encoding: 65536 -1 0
Width: 1830
GlyphClass: 1
Flags: W
LayerCount: 3
Fore
SplineSet
1506 50 m 1,0,-1
 787 1004 l 1,1,-1
 69 50 l 1,2,-1
 1506 50 l 1,0,-1
50 69 m 1,3,-1
 768 1024 l 1,4,-1
 50 1978 l 1,5,-1
 50 69 l 1,6,-1
 50 69 l 1,3,-1
1525 69 m 1,7,-1
 1525 1978 l 1,8,-1
 806 1024 l 1,9,-1
 1525 69 l 1,10,-1
 1525 69 l 1,7,-1
787 1043 m 1,11,-1
 1506 1998 l 1,12,-1
 69 1998 l 1,13,-1
 787 1043 l 1,14,-1
 787 1043 l 1,11,-1
0 0 m 1,15,-1
 0 2048 l 1,16,-1
 1575 2048 l 1,17,-1
 1575 0 l 1,18,-1
 0 0 l 1,15,-1
EndSplineSet
EndChar

StartChar: zero
Encoding: 48 48 2
Width: 2559
GlyphClass: 1
Flags: W
LayerCount: 3
Fore
SplineSet
1792 262 m 2,0,1
 1897 262 1897 262 1972 337 c 0,2,3
 2048 412 2048 412 2048 518 c 2,4,-1
 2048 1286 l 2,5,6
 2048 1391 2048 1391 1972 1466 c 0,7,8
 1897 1542 1897 1542 1792 1542 c 2,9,-1
 768 1542 l 2,10,11
 662 1542 662 1542 587 1466 c 0,12,13
 511 1391 511 1391 512 1286 c 2,14,-1
 512 518 l 2,15,16
 512 412 512 412 587 337 c 256,17,18
 662 261 662 261 768 262 c 2,19,-1
 1792 262 l 2,0,1
512 6 m 2,20,21
 405 6 405 6 331 81 c 0,22,23
 256 155 256 155 256 262 c 2,24,-1
 256 1542 l 2,25,26
 256 1648 256 1648 331 1722 c 0,27,28
 405 1798 405 1798 512 1798 c 2,29,-1
 2048 1798 l 2,30,31
 2154 1798 2154 1798 2228 1722 c 0,32,33
 2304 1647 2304 1647 2304 1542 c 2,34,35
 2304 1541 2304 1541 2304 262 c 2,36,37
 2304 155 2304 155 2228 81 c 0,38,39
 2153 6 2153 6 2048 6 c 2,40,-1
 512 6 l 2,20,21
EndSplineSet
EndChar

StartChar: one
Encoding: 49 49 3
Width: 2559
GlyphClass: 1
Flags: W
LayerCount: 3
Fore
SplineSet
386 -4 m 6,0,1
 333 -4 333 -4 295 33 c 4,2,3
 258 71 258 71 258 124 c 4,4,5
 258 176 258 176 295 214 c 4,6,7
 333 251 333 251 386 252 c 6,8,-1
 642 252 l 5,9,-1
 642 1660 l 6,10,11
 642 1712 642 1712 679 1750 c 4,12,13
 717 1788 717 1788 770 1788 c 4,14,15
 822 1788 822 1788 860 1750 c 260,16,17
 898 1712 898 1712 898 1660 c 6,18,-1
 898 252 l 5,19,-1
 2178 252 l 6,20,21
 2230 252 2230 252 2268 214 c 260,22,23
 2306 176 2306 176 2306 124 c 4,24,25
 2306 71 2306 71 2268 33 c 4,26,27
 2230 -4 2230 -4 2178 -4 c 6,28,-1
 386 -4 l 6,0,1
EndSplineSet
EndChar

StartChar: two
Encoding: 50 50 4
Width: 2559
GlyphClass: 1
Flags: W
LayerCount: 3
Fore
SplineSet
384 6 m 6,0,1
 331 6 331 6 293 43 c 4,2,3
 256 81 256 81 256 134 c 4,4,5
 256 186 256 186 293 224 c 4,6,7
 331 261 331 261 384 262 c 6,8,-1
 640 262 l 5,9,-1
 640 1670 l 6,10,11
 640 1722 640 1722 677 1760 c 4,12,13
 715 1798 715 1798 768 1798 c 4,14,15
 820 1798 820 1798 858 1760 c 260,16,17
 896 1722 896 1722 896 1670 c 6,18,-1
 896 262 l 5,19,-1
 1664 262 l 5,20,-1
 1664 1670 l 6,21,22
 1664 1722 1664 1722 1701 1760 c 4,23,24
 1739 1798 1739 1798 1792 1798 c 4,25,26
 1844 1798 1844 1798 1882 1760 c 260,27,28
 1920 1722 1920 1722 1920 1670 c 6,29,-1
 1920 262 l 5,30,-1
 2176 262 l 6,31,32
 2228 262 2228 262 2266 224 c 260,33,34
 2304 186 2304 186 2304 134 c 4,35,36
 2304 81 2304 81 2266 43 c 4,37,38
 2228 6 2228 6 2176 6 c 6,39,-1
 384 6 l 6,0,1
EndSplineSet
EndChar

StartChar: three
Encoding: 51 51 5
Width: 2559
GlyphClass: 1
Flags: W
LayerCount: 3
Fore
SplineSet
384 6 m 2,0,1
 331 6 331 6 293 43 c 0,2,3
 256 81 256 81 256 134 c 0,4,5
 256 186 256 186 293 224 c 0,6,7
 331 261 331 261 384 262 c 2,8,-1
 640 262 l 1,9,-1
 640 1670 l 2,10,11
 640 1722 640 1722 677 1760 c 0,12,13
 715 1798 715 1798 768 1798 c 0,14,15
 820 1798 820 1798 858 1760 c 256,16,17
 896 1722 896 1722 896 1670 c 2,18,-1
 896 262 l 1,19,-1
 1152 262 l 1,20,-1
 1152 1670 l 2,21,22
 1152 1722 1152 1722 1189 1760 c 0,23,24
 1227 1798 1227 1798 1280 1798 c 0,25,26
 1332 1798 1332 1798 1370 1760 c 256,27,28
 1408 1722 1408 1722 1408 1670 c 2,29,-1
 1408 262 l 1,30,-1
 1664 262 l 1,31,-1
 1664 1670 l 2,32,33
 1664 1722 1664 1722 1701 1760 c 0,34,35
 1739 1798 1739 1798 1792 1798 c 0,36,37
 1844 1798 1844 1798 1882 1760 c 256,38,39
 1920 1722 1920 1722 1920 1670 c 2,40,-1
 1920 262 l 1,41,-1
 2176 262 l 2,42,43
 2228 262 2228 262 2266 224 c 256,44,45
 2304 186 2304 186 2304 134 c 0,46,47
 2304 81 2304 81 2266 43 c 0,48,49
 2228 6 2228 6 2176 6 c 2,50,-1
 384 6 l 2,0,1
EndSplineSet
EndChar

StartChar: four
Encoding: 52 52 6
Width: 2559
GlyphClass: 1
Flags: W
LayerCount: 3
Fore
SplineSet
640 6 m 1,0,1
 587 6 587 6 549 43 c 0,2,3
 512 81 512 81 512 134 c 2,4,5
 512 133 512 133 512 262 c 1,6,-1
 896 1030 l 1,7,-1
 384 1030 l 2,8,9
 331 1030 331 1030 293 1067 c 0,10,11
 256 1105 256 1105 256 1158 c 0,12,13
 256 1210 256 1210 293 1248 c 0,14,15
 331 1286 331 1286 384 1286 c 2,16,-1
 1024 1286 l 1,17,-1
 1152 1542 l 1,18,-1
 1152 1670 l 2,19,20
 1152 1722 1152 1722 1189 1760 c 0,21,22
 1227 1798 1227 1798 1280 1798 c 0,23,24
 1332 1798 1332 1798 1370 1760 c 256,25,26
 1408 1722 1408 1722 1408 1670 c 2,27,-1
 1408 1542 l 1,28,29
 1408 1543 1408 1543 1536 1286 c 1,30,-1
 2176 1286 l 2,31,32
 2228 1286 2228 1286 2266 1248 c 256,33,34
 2304 1210 2304 1210 2304 1158 c 0,35,36
 2304 1105 2304 1105 2266 1067 c 0,37,38
 2228 1030 2228 1030 2176 1030 c 2,39,-1
 1664 1030 l 1,40,-1
 2048 262 l 1,41,-1
 2048 134 l 2,42,43
 2048 81 2048 81 2010 43 c 0,44,45
 1972 6 1972 6 1920 6 c 0,46,47
 1867 6 1867 6 1829 43 c 0,48,49
 1792 81 1792 81 1792 134 c 2,50,51
 1792 133 1792 133 1792 262 c 1,52,-1
 1408 1030 l 1,53,-1
 1152 1030 l 1,54,-1
 768 262 l 1,55,-1
 768 134 l 2,56,57
 768 81 768 81 730 43 c 0,58,59
 692 6 692 6 640 6 c 1,60,-1
 640 6 l 1,0,1
EndSplineSet
EndChar

StartChar: five
Encoding: 53 53 7
Width: 2559
GlyphClass: 1
Flags: W
LayerCount: 3
Fore
SplineSet
896 -250 m 1,0,1
 843 -250 843 -250 805 -213 c 0,2,3
 768 -175 768 -175 768 -122 c 2,4,-1
 768 6 l 1,5,-1
 1280 1030 l 1,6,-1
 384 1030 l 2,7,8
 331 1030 331 1030 293 1067 c 0,9,10
 256 1105 256 1105 256 1158 c 0,11,12
 256 1210 256 1210 293 1248 c 0,13,14
 331 1286 331 1286 384 1286 c 2,15,-1
 1408 1286 l 1,16,-1
 1536 1542 l 1,17,-1
 1536 1670 l 2,18,19
 1536 1722 1536 1722 1573 1760 c 0,20,21
 1611 1798 1611 1798 1664 1798 c 0,22,23
 1716 1798 1716 1798 1754 1760 c 256,24,25
 1792 1722 1792 1722 1792 1670 c 2,26,-1
 1792 1542 l 1,27,28
 1792 1543 1792 1543 1664 1286 c 1,29,-1
 2176 1286 l 2,30,31
 2228 1286 2228 1286 2266 1248 c 256,32,33
 2304 1210 2304 1210 2304 1158 c 0,34,35
 2304 1105 2304 1105 2266 1067 c 0,36,37
 2228 1030 2228 1030 2176 1030 c 2,38,-1
 1536 1030 l 1,39,-1
 1024 6 l 1,40,-1
 1024 -122 l 2,41,42
 1024 -175 1024 -175 986 -213 c 0,43,44
 948 -250 948 -250 896 -250 c 1,45,-1
 896 -250 l 1,0,1
EndSplineSet
EndChar

StartChar: six
Encoding: 54 54 8
Width: 2559
GlyphClass: 1
Flags: W
LayerCount: 3
Fore
SplineSet
768 6 m 1,0,1
 715 6 715 6 677 43 c 0,2,3
 640 81 640 81 640 134 c 2,4,-1
 640 1030 l 1,5,-1
 384 1030 l 2,6,7
 331 1030 331 1030 293 1067 c 0,8,9
 256 1105 256 1105 256 1158 c 0,10,11
 256 1210 256 1210 293 1248 c 0,12,13
 331 1286 331 1286 384 1286 c 2,14,-1
 640 1286 l 1,15,-1
 640 1670 l 2,16,17
 640 1722 640 1722 677 1760 c 0,18,19
 715 1798 715 1798 768 1798 c 0,20,21
 820 1798 820 1798 858 1760 c 256,22,23
 896 1722 896 1722 896 1670 c 2,24,-1
 896 1286 l 1,25,-1
 1152 1286 l 1,26,-1
 1152 1670 l 2,27,28
 1152 1722 1152 1722 1189 1760 c 0,29,30
 1227 1798 1227 1798 1280 1798 c 0,31,32
 1332 1798 1332 1798 1370 1760 c 256,33,34
 1408 1722 1408 1722 1408 1670 c 2,35,-1
 1408 1286 l 1,36,-1
 1664 1286 l 1,37,-1
 1664 1670 l 2,38,39
 1664 1722 1664 1722 1701 1760 c 0,40,41
 1739 1798 1739 1798 1792 1798 c 0,42,43
 1844 1798 1844 1798 1882 1760 c 256,44,45
 1920 1722 1920 1722 1920 1670 c 2,46,-1
 1920 1286 l 1,47,-1
 2176 1286 l 2,48,49
 2228 1286 2228 1286 2266 1248 c 256,50,51
 2304 1210 2304 1210 2304 1158 c 0,52,53
 2304 1105 2304 1105 2266 1067 c 0,54,55
 2228 1030 2228 1030 2176 1030 c 2,56,-1
 1920 1030 l 1,57,-1
 1920 134 l 2,58,59
 1920 81 1920 81 1882 43 c 0,60,61
 1844 6 1844 6 1792 6 c 0,62,63
 1739 6 1739 6 1701 43 c 0,64,65
 1664 81 1664 81 1664 134 c 2,66,-1
 1664 1030 l 1,67,-1
 1408 1030 l 1,68,-1
 1408 134 l 2,69,70
 1408 81 1408 81 1370 43 c 0,71,72
 1332 6 1332 6 1280 6 c 0,73,74
 1227 6 1227 6 1189 43 c 0,75,76
 1152 81 1152 81 1152 134 c 2,77,-1
 1152 1030 l 1,78,-1
 896 1030 l 1,79,-1
 896 134 l 2,80,81
 896 81 896 81 858 43 c 0,82,83
 820 6 820 6 768 6 c 1,84,-1
 768 6 l 1,0,1
EndSplineSet
EndChar

StartChar: seven
Encoding: 55 55 9
Width: 2559
GlyphClass: 1
Flags: W
LayerCount: 3
Fore
SplineSet
1920 6 m 1,0,1
 1867 6 1867 6 1829 43 c 0,2,3
 1792 81 1792 81 1792 134 c 2,4,-1
 1792 774 l 1,5,-1
 768 774 l 2,6,7
 661 774 661 774 587 849 c 0,8,9
 511 924 511 924 512 1030 c 2,10,-1
 512 1542 l 1,11,-1
 384 1542 l 2,12,13
 331 1542 331 1542 293 1579 c 0,14,15
 256 1617 256 1617 256 1670 c 0,16,17
 256 1722 256 1722 293 1760 c 0,18,19
 331 1798 331 1798 384 1798 c 2,20,-1
 2176 1798 l 2,21,22
 2228 1798 2228 1798 2266 1760 c 256,23,24
 2304 1722 2304 1722 2304 1670 c 0,25,26
 2304 1617 2304 1617 2266 1579 c 0,27,28
 2228 1542 2228 1542 2176 1542 c 2,29,-1
 768 1542 l 1,30,-1
 768 1030 l 1,31,-1
 1792 1030 l 2,32,33
 1898 1030 1898 1030 1972 954 c 0,34,35
 2048 879 2048 879 2048 774 c 2,36,-1
 2048 134 l 2,37,38
 2048 81 2048 81 2010 43 c 0,39,40
 1972 6 1972 6 1920 6 c 1,41,-1
 1920 6 l 1,0,1
EndSplineSet
EndChar

StartChar: eight
Encoding: 56 56 10
Width: 2559
GlyphClass: 1
Flags: W
LayerCount: 3
Fore
SplineSet
1280 518 m 1,0,-1
 1792 1542 l 1,1,-1
 768 1542 l 1,2,-1
 1280 518 l 1,3,-1
 1280 518 l 1,0,-1
1280 6 m 1,4,5
 1227 6 1227 6 1189 43 c 0,6,7
 1152 81 1152 81 1152 134 c 2,8,9
 1152 133 1152 133 1152 262 c 1,10,11
 1151 262 1151 262 512 1542 c 1,12,-1
 384 1542 l 2,13,14
 331 1542 331 1542 293 1579 c 0,15,16
 256 1617 256 1617 256 1670 c 0,17,18
 256 1722 256 1722 293 1760 c 0,19,20
 331 1798 331 1798 384 1798 c 2,21,-1
 2176 1798 l 2,22,23
 2228 1798 2228 1798 2266 1760 c 256,24,25
 2304 1722 2304 1722 2304 1670 c 0,26,27
 2304 1617 2304 1617 2266 1579 c 0,28,29
 2228 1542 2228 1542 2176 1542 c 2,30,-1
 2048 1542 l 1,31,32
 2048 1541 2048 1541 1408 262 c 1,33,-1
 1408 134 l 2,34,35
 1408 81 1408 81 1370 43 c 0,36,37
 1332 6 1332 6 1280 6 c 1,38,-1
 1280 6 l 1,4,5
EndSplineSet
EndChar

StartChar: nine
Encoding: 57 57 11
Width: 2559
GlyphClass: 1
Flags: W
LayerCount: 3
Fore
SplineSet
1152 262 m 1,0,-1
 1152 774 l 1,1,-1
 896 774 l 1,2,3
 896 773 896 773 896 262 c 1,4,-1
 1152 262 l 1,0,-1
1664 262 m 1,5,-1
 1664 774 l 1,6,-1
 1408 774 l 1,7,8
 1408 773 1408 773 1408 262 c 1,9,-1
 1664 262 l 1,5,-1
1152 1030 m 1,10,-1
 1152 1542 l 1,11,-1
 896 1542 l 1,12,-1
 896 1030 l 1,13,-1
 1152 1030 l 1,10,-1
1664 1030 m 1,14,-1
 1664 1542 l 1,15,-1
 1408 1542 l 1,16,-1
 1408 1030 l 1,17,-1
 1664 1030 l 1,14,-1
384 6 m 2,18,19
 331 6 331 6 293 43 c 0,20,21
 256 81 256 81 256 134 c 0,22,23
 256 186 256 186 293 224 c 0,24,25
 331 261 331 261 384 262 c 2,26,-1
 640 262 l 1,27,-1
 640 774 l 1,28,-1
 384 774 l 2,29,30
 331 774 331 774 293 811 c 0,31,32
 256 849 256 849 256 902 c 0,33,34
 256 954 256 954 293 992 c 0,35,36
 331 1030 331 1030 384 1030 c 2,37,-1
 640 1030 l 1,38,-1
 640 1542 l 1,39,-1
 384 1542 l 2,40,41
 331 1542 331 1542 293 1579 c 0,42,43
 256 1617 256 1617 256 1670 c 0,44,45
 256 1722 256 1722 293 1760 c 0,46,47
 331 1798 331 1798 384 1798 c 2,48,-1
 2176 1798 l 2,49,50
 2228 1798 2228 1798 2266 1760 c 256,51,52
 2304 1722 2304 1722 2304 1670 c 0,53,54
 2304 1617 2304 1617 2266 1579 c 0,55,56
 2228 1542 2228 1542 2176 1542 c 2,57,-1
 1920 1542 l 1,58,-1
 1920 1030 l 1,59,-1
 2176 1030 l 2,60,61
 2228 1030 2228 1030 2266 992 c 256,62,63
 2304 954 2304 954 2304 902 c 0,64,65
 2304 849 2304 849 2266 811 c 0,66,67
 2228 774 2228 774 2176 774 c 2,68,-1
 1920 774 l 1,69,70
 1920 773 1920 773 1920 262 c 1,71,-1
 2176 262 l 2,72,73
 2228 262 2228 262 2266 224 c 256,74,75
 2304 186 2304 186 2304 134 c 0,76,77
 2304 81 2304 81 2266 43 c 0,78,79
 2228 6 2228 6 2176 6 c 2,80,-1
 384 6 l 2,18,19
EndSplineSet
EndChar

StartChar: A
Encoding: 65 65 12
Width: 2559
GlyphClass: 1
Flags: W
LayerCount: 3
Fore
SplineSet
2048 134 m 1,0,-1
 1536 390 l 1,1,-1
 1152 774 l 1,2,3
 1153 774 1153 774 1536 1542 c 1,4,-1
 1024 1542 l 1,5,-1
 768 1030 l 1,6,-1
 768 518 l 1,7,-1
 640 262 l 1,8,-1
 512 518 l 1,9,-1
 512 1030 l 1,10,-1
 768 1542 l 1,11,-1
 512 1542 l 1,12,-1
 256 1670 l 1,13,14
 255 1670 255 1670 512 1798 c 1,15,-1
 1792 1798 l 1,16,-1
 2048 1670 l 1,17,-1
 1792 1542 l 1,18,19
 1793 1542 1793 1542 1536 1030 c 1,20,-1
 1534 1030 l 1,21,-1
 1408 902 l 1,22,-1
 1792 518 l 1,23,-1
 2304 262 l 1,24,-1
 2048 134 l 1,25,-1
 2048 134 l 1,0,-1
EndSplineSet
EndChar

StartChar: B
Encoding: 66 66 13
Width: 2559
GlyphClass: 1
Flags: W
LayerCount: 3
Fore
SplineSet
384 6 m 1,0,1
 384 5 384 5 256 262 c 1,2,-1
 256 1542 l 1,3,4
 255 1542 255 1542 512 1798 c 1,5,-1
 768 1670 l 1,6,-1
 512 1542 l 1,7,-1
 512 1030 l 1,8,-1
 1792 390 l 1,9,-1
 1920 262 l 1,10,-1
 2048 6 l 1,11,-1
 512 774 l 1,12,13
 512 773 512 773 512 262 c 1,14,-1
 384 6 l 1,15,-1
 384 6 l 1,0,1
EndSplineSet
EndChar

StartChar: C
Encoding: 67 67 14
Width: 2559
GlyphClass: 1
Flags: W
LayerCount: 3
Fore
SplineSet
512 6 m 1,0,-1
 256 134 l 1,1,2
 255 133 255 133 512 262 c 1,3,-1
 1152 262 l 1,4,-1
 1152 1542 l 1,5,6
 1151 1542 1151 1542 512 1542 c 1,7,-1
 256 1670 l 1,8,9
 255 1670 255 1670 512 1798 c 1,10,-1
 2048 1798 l 1,11,-1
 2304 1670 l 1,12,-1
 2048 1542 l 1,13,-1
 1408 1542 l 1,14,15
 1408 1541 1408 1541 1408 262 c 1,16,-1
 2048 262 l 1,17,-1
 2304 134 l 1,18,-1
 2048 6 l 1,19,-1
 512 6 l 1,0,-1
EndSplineSet
EndChar

StartChar: D
Encoding: 68 68 15
Width: 2559
GlyphClass: 1
Flags: W
LayerCount: 3
Fore
SplineSet
768 6 m 1,0,1
 768 5 768 5 512 262 c 1,2,-1
 384 518 l 1,3,4
 383 518 383 518 512 774 c 1,5,-1
 768 1030 l 1,6,-1
 1792 1542 l 1,7,8
 1792 1543 1792 1543 1664 1286 c 1,9,10
 1665 1286 1665 1286 1536 1158 c 1,11,-1
 768 774 l 1,12,-1
 640 518 l 1,13,-1
 768 262 l 1,14,-1
 2048 262 l 1,15,-1
 2048 1542 l 1,16,-1
 2176 1798 l 1,17,-1
 2304 1542 l 1,18,19
 2304 1541 2304 1541 2304 262 c 1,20,-1
 2048 6 l 1,21,-1
 768 6 l 1,0,1
EndSplineSet
EndChar

StartChar: E
Encoding: 69 69 16
Width: 2559
GlyphClass: 1
Flags: W
LayerCount: 3
Fore
SplineSet
2048 134 m 1,0,-1
 1280 518 l 1,1,-1
 1024 774 l 1,2,-1
 1024 902 l 1,3,4
 1023 902 1023 902 512 646 c 1,5,-1
 256 774 l 1,6,-1
 1024 1158 l 1,7,-1
 1024 1542 l 1,8,-1
 1152 1798 l 1,9,-1
 1280 1542 l 1,10,11
 1280 1543 1280 1543 1280 1286 c 1,12,-1
 2048 1670 l 1,13,-1
 2304 1542 l 1,14,-1
 1280 1030 l 1,15,-1
 1280 774 l 1,16,17
 1280 773 1280 773 2304 262 c 1,18,-1
 2048 134 l 1,19,-1
 2048 134 l 1,0,-1
EndSplineSet
EndChar

StartChar: F
Encoding: 70 70 17
Width: 2559
GlyphClass: 1
Flags: W
LayerCount: 3
Fore
SplineSet
2304 6 m 1,0,-1
 768 774 l 1,1,-1
 512 1030 l 1,2,-1
 384 1286 l 1,3,4
 383 1286 383 1286 512 1542 c 1,5,-1
 768 1798 l 1,6,-1
 1024 1798 l 1,7,8
 1025 1798 1025 1798 1536 1542 c 1,9,-1
 768 1542 l 1,10,11
 768 1543 768 1543 640 1286 c 1,12,-1
 768 1030 l 1,13,-1
 2048 390 l 1,14,-1
 2176 262 l 1,15,-1
 2304 6 l 1,16,-1
 2304 6 l 1,0,-1
EndSplineSet
EndChar

StartChar: G
Encoding: 71 71 18
Width: 2559
GlyphClass: 1
Flags: W
LayerCount: 3
Fore
SplineSet
2304 6 m 1,0,-1
 768 774 l 1,1,-1
 512 1030 l 1,2,-1
 384 1286 l 1,3,4
 383 1286 383 1286 512 1542 c 1,5,-1
 768 1798 l 1,6,-1
 1024 1798 l 1,7,8
 1025 1798 1025 1798 1536 1542 c 1,9,-1
 768 1542 l 1,10,11
 768 1543 768 1543 640 1286 c 1,12,-1
 768 1030 l 1,13,-1
 1024 1286 l 1,14,-1
 1024 902 l 1,15,-1
 1280 774 l 1,16,-1
 1536 1030 l 1,17,-1
 1536 646 l 1,18,-1
 2048 390 l 1,19,-1
 2176 262 l 1,20,-1
 2304 6 l 1,21,-1
 2304 6 l 1,0,-1
EndSplineSet
EndChar

StartChar: I
Encoding: 73 73 19
Width: 2559
GlyphClass: 1
Flags: W
LayerCount: 3
Fore
SplineSet
2048 134 m 1,0,-1
 1280 518 l 1,1,-1
 1280 519 l 1,2,-1
 1152 646 l 1,3,-1
 1024 518 l 1,4,5
 1023 518 1023 518 512 262 c 1,6,-1
 256 262 l 1,7,8
 255 262 255 262 512 518 c 1,9,-1
 1024 774 l 1,10,-1
 1280 1030 l 1,11,-1
 1408 1286 l 1,12,-1
 1408 1542 l 1,13,-1
 1280 1798 l 1,14,-1
 1536 1670 l 1,15,-1
 1664 1542 l 1,16,17
 1664 1543 1664 1543 1664 1286 c 1,18,19
 1665 1286 1665 1286 1536 1030 c 1,20,-1
 1280 774 l 1,21,22
 1280 773 1280 773 2304 262 c 1,23,-1
 2048 134 l 1,24,-1
 2048 134 l 1,0,-1
EndSplineSet
EndChar

StartChar: J
Encoding: 74 74 20
Width: 2559
GlyphClass: 1
Flags: W
LayerCount: 3
Fore
SplineSet
768 6 m 1,0,1
 768 5 768 5 512 262 c 1,2,-1
 256 774 l 1,3,4
 255 774 255 774 512 646 c 1,5,-1
 640 518 l 1,6,-1
 768 262 l 1,7,-1
 1536 262 l 1,8,-1
 2048 774 l 1,9,-1
 2048 1542 l 1,10,-1
 2176 1798 l 1,11,-1
 2304 1542 l 1,12,-1
 2304 774 l 1,13,14
 2305 774 2305 774 1536 6 c 1,15,-1
 768 6 l 1,0,1
EndSplineSet
EndChar

StartChar: K
Encoding: 75 75 21
Width: 2559
GlyphClass: 1
Flags: W
LayerCount: 3
Fore
SplineSet
512 6 m 1,0,1
 512 5 512 5 256 262 c 1,2,3
 255 262 255 262 512 518 c 1,4,-1
 1920 1222 l 1,5,-1
 1280 1542 l 1,6,-1
 256 1542 l 1,7,8
 255 1542 255 1542 512 1798 c 1,9,-1
 1280 1798 l 1,10,-1
 2048 1414 l 1,11,12
 2048 1415 2048 1415 2176 1286 c 1,13,-1
 2176 1158 l 1,14,-1
 2048 1030 l 1,15,-1
 512 262 l 1,16,-1
 2048 262 l 1,17,-1
 2304 134 l 1,18,-1
 2048 6 l 1,19,-1
 512 6 l 1,0,1
EndSplineSet
EndChar

StartChar: L
Encoding: 76 76 22
Width: 2559
GlyphClass: 1
Flags: W
LayerCount: 3
Fore
SplineSet
512 6 m 1,0,-1
 256 134 l 1,1,2
 255 133 255 133 512 262 c 1,3,-1
 512 1286 l 1,4,-1
 1024 1798 l 1,5,-1
 1024 1542 l 1,6,7
 1024 1543 1024 1543 768 1286 c 1,8,-1
 768 262 l 1,9,-1
 1280 262 l 1,10,-1
 1280 1286 l 5,11,-1
 1792 1798 l 5,12,-1
 1792 1542 l 5,13,14
 1793 1543 1793 1543 1536 1286 c 5,15,-1
 1536 262 l 1,16,-1
 2048 262 l 1,17,-1
 2304 134 l 1,18,-1
 2048 6 l 1,19,-1
 512 6 l 1,0,-1
EndSplineSet
EndChar

StartChar: M
Encoding: 77 77 23
Width: 2559
GlyphClass: 1
Flags: W
LayerCount: 3
Fore
SplineSet
1408 390 m 1,0,-1
 1792 774 l 1,1,2
 1793 774 1793 774 1536 1030 c 1,3,-1
 1536 1031 l 1,4,-1
 1408 1158 l 1,5,-1
 1024 774 l 1,6,-1
 1280 518 l 1,7,-1
 1280 516 l 1,8,-1
 1408 390 l 1,9,-1
 1408 390 l 1,0,-1
1408 6 m 1,10,11
 1408 5 1408 5 1280 262 c 1,12,-1
 768 774 l 1,13,14
 768 775 768 775 1280 1286 c 1,15,-1
 1280 1542 l 1,16,-1
 1024 1542 l 1,17,18
 1024 1543 1024 1543 768 1286 c 1,19,-1
 512 1286 l 1,20,-1
 256 1414 l 1,21,22
 255 1414 255 1414 512 1542 c 1,23,-1
 768 1542 l 1,24,-1
 1024 1798 l 1,25,-1
 2048 1798 l 1,26,-1
 2304 1670 l 1,27,-1
 2048 1542 l 1,28,-1
 1536 1542 l 1,29,30
 1536 1543 1536 1543 1536 1286 c 1,31,-1
 2048 774 l 1,32,33
 2048 773 2048 773 1536 262 c 1,34,-1
 1408 6 l 1,35,-1
 1408 6 l 1,10,11
EndSplineSet
EndChar

StartChar: N
Encoding: 78 78 24
Width: 2559
GlyphClass: 1
Flags: W
LayerCount: 3
Fore
SplineSet
1152 6 m 1,0,1
 1152 5 1152 5 1024 262 c 1,2,-1
 768 518 l 1,3,-1
 1536 1286 l 1,4,-1
 1536 1542 l 1,5,-1
 1024 1542 l 1,6,7
 1024 1543 1024 1543 768 1286 c 1,8,-1
 512 1286 l 1,9,-1
 256 1414 l 1,10,11
 255 1414 255 1414 512 1542 c 1,12,-1
 768 1542 l 1,13,-1
 1024 1798 l 1,14,-1
 2048 1798 l 1,15,-1
 2304 1670 l 1,16,-1
 2048 1542 l 1,17,-1
 1792 1542 l 1,18,19
 1792 1543 1792 1543 1792 1286 c 1,20,-1
 1024 518 l 1,21,-1
 1280 262 l 1,22,-1
 1152 6 l 1,23,-1
 1152 6 l 1,0,1
EndSplineSet
EndChar

StartChar: O
Encoding: 79 79 25
Width: 2559
GlyphClass: 1
Flags: W
LayerCount: 3
Fore
SplineSet
2048 134 m 1,0,-1
 1536 390 l 1,1,-1
 1408 518 l 1,2,-1
 1280 774 l 1,3,-1
 1280 1542 l 1,4,-1
 512 1542 l 1,5,-1
 512 518 l 1,6,-1
 1024 518 l 1,7,-1
 1280 390 l 1,8,-1
 1024 262 l 1,9,10
 1023 262 1023 262 512 262 c 1,11,-1
 256 518 l 1,12,-1
 256 1542 l 1,13,14
 255 1542 255 1542 512 1798 c 1,15,-1
 1280 1798 l 1,16,-1
 1536 1542 l 1,17,-1
 1536 774 l 1,18,-1
 1792 518 l 1,19,-1
 2304 262 l 1,20,-1
 2048 134 l 1,21,-1
 2048 134 l 1,0,-1
EndSplineSet
EndChar

StartChar: P
Encoding: 80 80 26
Width: 2559
GlyphClass: 1
Flags: W
LayerCount: 3
Fore
SplineSet
384 6 m 1,0,1
 384 5 384 5 256 262 c 1,2,-1
 256 1542 l 1,3,4
 255 1542 255 1542 512 1798 c 1,5,-1
 2048 1798 l 1,6,-1
 2304 1542 l 1,7,8
 2304 1543 2304 1543 2176 1286 c 1,9,-1
 2048 1542 l 1,10,-1
 512 1542 l 1,11,-1
 512 1030 l 1,12,-1
 1792 390 l 1,13,-1
 1920 262 l 1,14,-1
 2048 6 l 1,15,-1
 512 774 l 1,16,17
 512 773 512 773 512 262 c 1,18,-1
 384 6 l 1,19,-1
 384 6 l 1,0,1
EndSplineSet
EndChar

StartChar: Q
Encoding: 81 81 27
Width: 2559
GlyphClass: 1
Flags: W
LayerCount: 3
Fore
SplineSet
512 6 m 1,0,-1
 256 134 l 1,1,2
 255 133 255 133 512 262 c 1,3,-1
 2048 262 l 1,4,-1
 512 1030 l 1,5,-1
 384 1158 l 1,6,-1
 384 1286 l 1,7,8
 383 1286 383 1286 512 1414 c 1,9,-1
 1280 1798 l 1,10,-1
 2048 1798 l 1,11,-1
 2304 1542 l 1,12,-1
 1280 1542 l 1,13,-1
 640 1222 l 1,14,-1
 2048 518 l 1,15,-1
 2304 262 l 1,16,-1
 2048 6 l 1,17,-1
 512 6 l 1,0,-1
EndSplineSet
EndChar

StartChar: R
Encoding: 82 82 28
Width: 2559
GlyphClass: 1
Flags: W
LayerCount: 3
Fore
SplineSet
1536 1030 m 1,0,-1
 1536 1542 l 1,1,-1
 1024 1542 l 1,2,-1
 1024 1030 l 1,3,-1
 1536 1030 l 1,0,-1
896 6 m 1,4,5
 896 5 896 5 768 262 c 1,6,-1
 768 1542 l 1,7,-1
 512 1542 l 1,8,-1
 256 1670 l 1,9,10
 255 1670 255 1670 512 1798 c 1,11,-1
 2048 1798 l 1,12,-1
 2304 1670 l 1,13,-1
 2048 1542 l 1,14,-1
 1792 1542 l 1,15,16
 1792 1541 1792 1541 1792 262 c 1,17,-1
 1664 6 l 1,18,19
 1665 5 1665 5 1536 262 c 1,20,-1
 1536 774 l 1,21,-1
 1024 774 l 1,22,23
 1024 773 1024 773 1024 262 c 1,24,-1
 896 6 l 1,25,-1
 896 6 l 1,4,5
EndSplineSet
EndChar

StartChar: S
Encoding: 83 83 29
Width: 2559
GlyphClass: 1
Flags: W
LayerCount: 3
Fore
SplineSet
512 6 m 1,0,-1
 256 134 l 1,1,2
 255 133 255 133 512 262 c 1,3,-1
 1152 262 l 1,4,-1
 1152 1542 l 1,5,-1
 1280 1798 l 1,6,-1
 1408 1542 l 1,7,8
 1408 1541 1408 1541 1408 262 c 1,9,-1
 2048 262 l 1,10,-1
 2304 134 l 1,11,-1
 2048 6 l 1,12,-1
 512 6 l 1,0,-1
EndSplineSet
EndChar

StartChar: T
Encoding: 84 84 30
Width: 2559
GlyphClass: 1
Flags: W
LayerCount: 3
Fore
SplineSet
768 6 m 1,0,1
 768 5 768 5 512 262 c 1,2,-1
 384 518 l 5,3,4
 383 518 383 518 512 774 c 5,5,-1
 768 1030 l 5,6,-1
 1792 1542 l 5,7,8
 1792 1543 1792 1543 1664 1286 c 5,9,10
 1665 1286 1665 1286 1536 1158 c 5,11,-1
 768 774 l 5,12,-1
 640 518 l 5,13,-1
 768 262 l 1,14,-1
 2048 262 l 1,15,-1
 2304 134 l 1,16,-1
 2048 6 l 1,17,-1
 768 6 l 1,0,1
EndSplineSet
EndChar

StartChar: V
Encoding: 86 86 31
Width: 2559
GlyphClass: 1
Flags: W
LayerCount: 3
Fore
SplineSet
2176 6 m 1,0,1
 2176 5 2176 5 2048 262 c 1,2,-1
 2048 1542 l 1,3,-1
 768 1542 l 1,4,5
 768 1543 768 1543 640 1286 c 1,6,-1
 768 1030 l 1,7,-1
 1536 646 l 1,8,-1
 1664 518 l 1,9,-1
 1792 262 l 1,10,-1
 768 774 l 1,11,-1
 512 1030 l 1,12,-1
 384 1286 l 1,13,14
 383 1286 383 1286 512 1542 c 1,15,-1
 768 1798 l 1,16,-1
 2048 1798 l 1,17,-1
 2304 1542 l 1,18,19
 2304 1541 2304 1541 2304 262 c 1,20,-1
 2176 6 l 1,21,-1
 2176 6 l 1,0,1
EndSplineSet
EndChar

StartChar: Y
Encoding: 89 89 32
Width: 2559
GlyphClass: 1
Flags: W
LayerCount: 3
Fore
SplineSet
1024 6 m 1,0,-1
 256 774 l 1,1,-1
 256 1542 l 1,2,-1
 384 1798 l 1,3,4
 383 1798 383 1798 512 1542 c 1,5,-1
 512 774 l 1,6,7
 512 773 512 773 1024 262 c 1,8,9
 1025 262 1025 262 1536 262 c 1,10,-1
 2048 774 l 1,11,-1
 2048 1542 l 1,12,-1
 2176 1798 l 1,13,-1
 2304 1542 l 1,14,-1
 2304 774 l 1,15,16
 2305 774 2305 774 1536 6 c 1,17,-1
 1024 6 l 1,0,-1
EndSplineSet
EndChar

StartChar: Z
Encoding: 90 90 33
Width: 2559
GlyphClass: 1
Flags: W
LayerCount: 3
Fore
SplineSet
512 6 m 5,0,-1
 256 134 l 5,1,2
 255 133 255 133 512 262 c 5,3,-1
 2048 262 l 5,4,-1
 2048 1542 l 5,5,-1
 512 1542 l 5,6,-1
 256 1670 l 5,7,8
 255 1670 255 1670 512 1798 c 5,9,-1
 2048 1798 l 5,10,-1
 2304 1542 l 5,11,12
 2304 1541 2304 1541 2304 262 c 5,13,-1
 2048 6 l 5,14,-1
 512 6 l 5,0,-1
EndSplineSet
EndChar

StartChar: c
Encoding: 99 99 34
Width: 2559
Flags: W
LayerCount: 3
Fore
SplineSet
384 6 m 1,0,1
 384 5 384 5 256 262 c 1,2,-1
 256 1542 l 1,3,4
 255 1542 255 1542 512 1798 c 1,5,-1
 768 1670 l 1,6,-1
 512 1542 l 1,7,-1
 512 1030 l 1,8,-1
 1792 390 l 1,9,-1
 1920 262 l 1,10,-1
 2048 6 l 1,11,12
 2048 5 2048 5 1536 262 c 1,13,-1
 1280 6 l 1,14,-1
 1280 390 l 1,15,-1
 1024 518 l 1,16,-1
 768 262 l 1,17,-1
 768 646 l 1,18,-1
 512 774 l 1,19,20
 512 773 512 773 512 262 c 1,21,-1
 384 6 l 1,22,-1
 384 6 l 1,0,1
EndSplineSet
EndChar

StartChar: H
Encoding: 72 72 35
Width: 2559
Flags: W
LayerCount: 3
Fore
SplineSet
2304 6 m 1,0,1
 2305 6 2305 6 1536 390 c 1,2,-1
 1280 134 l 1,3,-1
 1280 518 l 1,4,-1
 1024 646 l 1,5,-1
 768 390 l 1,6,-1
 768 774 l 1,7,-1
 512 1030 l 1,8,-1
 384 1286 l 1,9,10
 383 1286 383 1286 512 1542 c 1,11,-1
 768 1798 l 1,12,-1
 1024 1798 l 1,13,14
 1025 1798 1025 1798 1536 1542 c 1,15,-1
 768 1542 l 1,16,17
 768 1543 768 1543 640 1286 c 1,18,-1
 768 1030 l 1,19,-1
 2048 390 l 1,20,-1
 2176 262 l 1,21,-1
 2304 6 l 1,22,-1
 2304 6 l 1,0,1
EndSplineSet
EndChar

StartChar: g
Encoding: 103 103 36
Width: 2559
Flags: W
LayerCount: 3
Fore
SplineSet
1535 1189 m 1,0,-1
 618 523 l 5,1,-1
 768 262 l 1,2,-1
 1536 262 l 1,3,-1
 2048 774 l 1,4,-1
 2048 1542 l 1,5,-1
 2176 1798 l 1,6,-1
 2304 1542 l 1,7,-1
 2304 774 l 1,8,9
 2305 774 2305 774 1536 6 c 1,10,-1
 768 6 l 1,11,12
 768 5 768 5 512 262 c 1,13,-1
 396 497 l 1,14,-1
 447 672 l 1,15,16
 447 672 447 672 1382 1339 c 9,17,-1
 1589 1369 l 1,18,-1
 1535 1189 l 1,0,-1
EndSplineSet
EndChar

StartChar: r
Encoding: 114 114 37
Width: 2559
Flags: W
LayerCount: 3
Fore
SplineSet
512 6 m 1,0,-1
 256 134 l 1,1,2
 255 133 255 133 512 262 c 1,3,-1
 2048 262 l 1,4,-1
 1280 646 l 1,5,-1
 1024 390 l 1,6,-1
 1024 774 l 1,7,-1
 768 902 l 1,8,-1
 512 646 l 1,9,-1
 512 1030 l 1,10,-1
 384 1158 l 1,11,-1
 384 1286 l 1,12,13
 383 1286 383 1286 512 1414 c 1,14,-1
 1280 1798 l 1,15,-1
 2048 1798 l 1,16,-1
 2304 1542 l 1,17,-1
 1280 1542 l 1,18,-1
 640 1222 l 1,19,-1
 2048 518 l 1,20,-1
 2304 262 l 1,21,-1
 2048 6 l 1,22,-1
 512 6 l 1,0,-1
EndSplineSet
EndChar

StartChar: s
Encoding: 115 115 38
Width: 2559
Flags: W
LayerCount: 3
Fore
SplineSet
512 6 m 1,0,-1
 256 134 l 1,1,2
 255 133 255 133 512 262 c 1,3,-1
 1152 262 l 1,4,-1
 1152 774 l 1,5,-1
 256 774 l 1,6,7
 255 774 255 774 512 902 c 1,8,-1
 1024 902 l 1,9,-1
 1152 1030 l 1,10,-1
 1152 1542 l 1,11,-1
 1280 1798 l 1,12,-1
 1408 1542 l 1,13,-1
 1408 1030 l 1,14,-1
 2304 1030 l 1,15,-1
 2048 902 l 1,16,-1
 1536 902 l 1,17,-1
 1408 774 l 1,18,19
 1408 773 1408 773 1408 262 c 1,20,-1
 2048 262 l 1,21,-1
 2304 134 l 1,22,-1
 2048 6 l 1,23,-1
 512 6 l 1,0,-1
EndSplineSet
EndChar

StartChar: W
Encoding: 87 87 39
Width: 2559
Flags: W
LayerCount: 3
Fore
SplineSet
2176 6 m 1,0,1
 2176 5 2176 5 2048 262 c 1,2,-1
 2048 1542 l 1,3,-1
 768 1542 l 1,4,5
 768 1543 768 1543 640 1286 c 1,6,-1
 768 1030 l 1,7,-1
 1024 1286 l 1,8,-1
 1024 902 l 1,9,-1
 1280 774 l 1,10,-1
 1536 1030 l 1,11,-1
 1536 646 l 1,12,-1
 1664 518 l 1,13,-1
 1792 262 l 1,14,-1
 768 774 l 1,15,-1
 512 1030 l 1,16,-1
 384 1286 l 1,17,18
 383 1286 383 1286 512 1542 c 1,19,-1
 768 1798 l 1,20,-1
 2048 1798 l 1,21,-1
 2304 1542 l 1,22,23
 2304 1541 2304 1541 2304 262 c 1,24,-1
 2176 6 l 1,25,-1
 2176 6 l 1,0,1
EndSplineSet
EndChar

StartChar: X
Encoding: 88 88 40
Width: 2559
Flags: W
LayerCount: 3
Fore
SplineSet
512 6 m 1,0,-1
 256 134 l 1,1,2
 255 133 255 133 512 262 c 1,3,-1
 1152 262 l 1,4,-1
 1152 774 l 1,5,-1
 256 774 l 1,6,7
 255 774 255 774 512 902 c 1,8,-1
 1024 902 l 1,9,-1
 1152 1030 l 1,10,-1
 1152 1542 l 1,11,12
 1151 1542 1151 1542 512 1542 c 1,13,-1
 256 1670 l 1,14,15
 255 1670 255 1670 512 1798 c 1,16,-1
 2048 1798 l 1,17,-1
 2304 1670 l 1,18,-1
 2048 1542 l 1,19,-1
 1408 1542 l 1,20,-1
 1408 1030 l 1,21,-1
 2304 1030 l 1,22,-1
 2048 902 l 1,23,-1
 1536 902 l 1,24,-1
 1408 774 l 1,25,26
 1408 773 1408 773 1408 262 c 1,27,-1
 2048 262 l 1,28,-1
 2304 134 l 1,29,-1
 2048 6 l 1,30,-1
 512 6 l 1,0,-1
EndSplineSet
EndChar

StartChar: v
Encoding: 118 118 41
Width: 2559
Flags: W
LayerCount: 3
Fore
SplineSet
2176 6 m 1,0,1
 2176 5 2176 5 2048 262 c 1,2,-1
 2048 1542 l 1,3,-1
 768 1542 l 1,4,5
 768 1543 768 1543 640 1286 c 1,6,-1
 768 1030 l 1,7,-1
 1536 646 l 1,8,-1
 1664 518 l 1,9,-1
 1792 262 l 1,10,11
 1793 262 1793 262 1536 390 c 1,12,-1
 1280 134 l 1,13,-1
 1280 518 l 1,14,-1
 1024 646 l 1,15,-1
 768 390 l 1,16,-1
 768 774 l 1,17,-1
 512 1030 l 1,18,-1
 384 1286 l 1,19,20
 383 1286 383 1286 512 1542 c 1,21,-1
 768 1798 l 1,22,-1
 2048 1798 l 1,23,-1
 2304 1542 l 1,24,25
 2304 1541 2304 1541 2304 262 c 1,26,-1
 2176 6 l 1,27,-1
 2176 6 l 1,0,1
EndSplineSet
EndChar

StartChar: a
Encoding: 97 97 42
Width: 2559
Flags: W
LayerCount: 3
Fore
SplineSet
2048 134 m 1,0,-1
 1280 518 l 1,1,-1
 1280 519 l 1,2,-1
 1152 646 l 1,3,-1
 1024 518 l 1,4,5
 1023 518 1023 518 512 262 c 1,6,-1
 256 262 l 1,7,8
 255 262 255 262 512 518 c 1,9,-1
 1024 774 l 1,10,-1
 1280 1030 l 1,11,-1
 1408 1286 l 1,12,-1
 1408 1414 l 1,13,-1
 1280 1542 l 1,14,-1
 512 1542 l 1,15,-1
 256 1670 l 1,16,17
 255 1670 255 1670 512 1798 c 1,18,-1
 2304 1798 l 1,19,-1
 1792 1542 l 1,20,21
 1793 1542 1793 1542 1536 1030 c 1,22,-1
 1280 774 l 1,23,24
 1280 773 1280 773 2304 262 c 1,25,-1
 2048 134 l 1,26,-1
 2048 134 l 1,0,-1
EndSplineSet
EndChar

StartChar: b
Encoding: 98 98 43
Width: 2559
Flags: W
LayerCount: 3
Fore
SplineSet
384 6 m 1,0,1
 384 5 384 5 256 262 c 1,2,-1
 256 1542 l 1,3,4
 255 1542 255 1542 512 1798 c 1,5,-1
 768 1670 l 1,6,-1
 512 1542 l 1,7,-1
 512 1030 l 1,8,-1
 1024 774 l 1,9,-1
 1280 1030 l 1,10,-1
 1280 646 l 1,11,-1
 1536 518 l 1,12,-1
 1792 774 l 1,13,-1
 1792 390 l 1,14,-1
 1920 262 l 1,15,-1
 2048 6 l 1,16,-1
 512 774 l 1,17,18
 512 773 512 773 512 262 c 1,19,-1
 384 6 l 1,20,-1
 384 6 l 1,0,1
EndSplineSet
EndChar

StartChar: d
Encoding: 100 100 44
Width: 2559
Flags: W
LayerCount: 3
Fore
SplineSet
768 6 m 1,0,1
 768 5 768 5 512 262 c 1,2,-1
 384 518 l 1,3,4
 383 518 383 518 512 774 c 1,5,-1
 768 1030 l 1,6,-1
 768 1414 l 1,7,-1
 1024 1158 l 1,8,-1
 1280 1286 l 1,9,-1
 1280 1670 l 1,10,-1
 1536 1414 l 1,11,-1
 1792 1542 l 1,12,13
 1792 1543 1792 1543 1664 1286 c 1,14,15
 1665 1286 1665 1286 1536 1158 c 1,16,-1
 768 774 l 1,17,-1
 640 518 l 1,18,-1
 768 262 l 1,19,-1
 2048 262 l 1,20,-1
 2048 1542 l 1,21,-1
 2176 1798 l 1,22,-1
 2304 1542 l 1,23,24
 2304 1541 2304 1541 2304 262 c 1,25,-1
 2048 6 l 1,26,-1
 768 6 l 1,0,1
EndSplineSet
EndChar

StartChar: e
Encoding: 101 101 45
Width: 2559
Flags: W
LayerCount: 3
Fore
SplineSet
768 6 m 1,0,1
 768 5 768 5 512 262 c 1,2,-1
 384 518 l 1,3,4
 383 518 383 518 512 774 c 1,5,-1
 768 1030 l 1,6,-1
 1792 1542 l 1,7,8
 1792 1543 1792 1543 1664 1286 c 1,9,10
 1665 1286 1665 1286 1536 1158 c 1,11,-1
 1536 774 l 1,12,-1
 1280 1030 l 1,13,-1
 1024 902 l 1,14,-1
 1024 518 l 1,15,-1
 768 774 l 1,16,-1
 640 518 l 1,17,-1
 768 262 l 1,18,-1
 2048 262 l 1,19,-1
 2048 1542 l 1,20,-1
 2176 1798 l 1,21,-1
 2304 1542 l 1,22,23
 2304 1541 2304 1541 2304 262 c 1,24,-1
 2048 6 l 1,25,-1
 768 6 l 1,0,1
EndSplineSet
EndChar

StartChar: f
Encoding: 102 102 46
Width: 2559
Flags: W
LayerCount: 3
Fore
SplineSet
384 6 m 1,0,1
 384 5 384 5 256 262 c 1,2,-1
 256 1542 l 1,3,4
 255 1542 255 1542 512 1798 c 1,5,-1
 2048 1798 l 1,6,-1
 2304 1542 l 1,7,8
 2304 1543 2304 1543 2176 1286 c 1,9,-1
 2048 1542 l 1,10,-1
 512 1542 l 1,11,-1
 512 1030 l 1,12,-1
 1792 390 l 1,13,-1
 1920 262 l 1,14,-1
 2048 6 l 1,15,16
 2048 5 2048 5 1536 262 c 1,17,-1
 1280 6 l 1,18,-1
 1280 390 l 1,19,-1
 1024 518 l 1,20,-1
 768 262 l 1,21,-1
 768 646 l 1,22,-1
 512 774 l 1,23,24
 512 773 512 773 512 262 c 1,25,-1
 384 6 l 1,26,-1
 384 6 l 1,0,1
EndSplineSet
EndChar

StartChar: i
Encoding: 105 105 47
Width: 2559
Flags: W
LayerCount: 3
Fore
SplineSet
2048 134 m 1,0,-1
 1280 518 l 1,1,-1
 1280 519 l 1,2,-1
 1152 646 l 1,3,-1
 1024 518 l 1,4,5
 1023 518 1023 518 512 262 c 1,6,-1
 256 262 l 1,7,8
 255 262 255 262 512 518 c 1,9,-1
 1024 774 l 1,10,-1
 1280 1030 l 1,11,-1
 1408 1286 l 1,12,-1
 1408 1542 l 1,13,-1
 1280 1798 l 1,14,-1
 1536 1670 l 1,15,-1
 1664 1542 l 1,16,17
 1664 1543 1664 1543 1664 1286 c 1,18,19
 1665 1286 1665 1286 1536 1030 c 1,20,-1
 1280 774 l 1,21,22
 1280 773 1280 773 2304 262 c 1,23,-1
 2048 134 l 1,24,-1
 2048 134 l 1,0,-1
EndSplineSet
EndChar

StartChar: j
Encoding: 106 106 48
Width: 2559
Flags: W
LayerCount: 3
Fore
SplineSet
768 6 m 1,0,1
 768 5 768 5 512 262 c 1,2,-1
 256 774 l 1,3,4
 255 774 255 774 512 646 c 1,5,-1
 640 518 l 1,6,-1
 768 262 l 1,7,-1
 1536 262 l 1,8,-1
 2048 774 l 1,9,-1
 2048 1542 l 1,10,-1
 2176 1798 l 1,11,-1
 2304 1542 l 1,12,-1
 2304 774 l 1,13,14
 2305 774 2305 774 1536 6 c 1,15,-1
 768 6 l 1,0,1
EndSplineSet
EndChar

StartChar: k
Encoding: 107 107 49
Width: 2559
Flags: W
LayerCount: 3
Fore
SplineSet
512 6 m 1,0,1
 512 5 512 5 256 262 c 1,2,3
 255 262 255 262 512 518 c 1,4,-1
 768 646 l 1,5,-1
 768 1030 l 1,6,-1
 1024 774 l 1,7,-1
 1280 902 l 1,8,9
 1280 903 1280 903 1280 1286 c 1,10,-1
 1536 1030 l 1,11,-1
 1920 1222 l 1,12,-1
 1280 1542 l 1,13,-1
 256 1542 l 1,14,15
 255 1542 255 1542 512 1798 c 1,16,-1
 1280 1798 l 1,17,-1
 2048 1414 l 1,18,19
 2048 1415 2048 1415 2176 1286 c 1,20,-1
 2176 1158 l 1,21,-1
 2048 1030 l 1,22,-1
 512 262 l 1,23,-1
 2048 262 l 1,24,-1
 2304 134 l 1,25,-1
 2048 6 l 1,26,-1
 512 6 l 1,0,1
EndSplineSet
EndChar

StartChar: l
Encoding: 108 108 50
Width: 2559
Flags: W
LayerCount: 3
Fore
SplineSet
512 6 m 1,0,1
 512 5 512 5 256 262 c 1,2,3
 255 262 255 262 512 518 c 1,4,-1
 1920 1222 l 1,5,-1
 1280 1542 l 1,6,-1
 256 1542 l 1,7,8
 255 1542 255 1542 512 1798 c 1,9,-1
 1280 1798 l 1,10,-1
 2048 1414 l 1,11,12
 2048 1415 2048 1415 2176 1286 c 1,13,-1
 2176 1158 l 1,14,-1
 2048 1030 l 1,15,-1
 2048 646 l 1,16,-1
 1792 902 l 1,17,18
 1793 902 1793 902 1536 774 c 1,19,-1
 1536 390 l 1,20,-1
 1280 646 l 1,21,22
 1280 645 1280 645 512 262 c 1,23,-1
 2048 262 l 1,24,-1
 2304 134 l 1,25,-1
 2048 6 l 1,26,-1
 512 6 l 1,0,1
EndSplineSet
EndChar

StartChar: m
Encoding: 109 109 51
Width: 2559
Flags: W
LayerCount: 3
Fore
SplineSet
1408 390 m 1,0,-1
 1792 774 l 1,1,2
 1793 774 1793 774 1536 1030 c 1,3,-1
 1536 1031 l 1,4,-1
 1408 1158 l 1,5,-1
 1024 774 l 1,6,-1
 1280 518 l 1,7,-1
 1280 516 l 1,8,-1
 1408 390 l 1,9,-1
 1408 390 l 1,0,-1
1408 6 m 1,10,11
 1408 5 1408 5 1280 262 c 1,12,-1
 768 774 l 1,13,14
 768 775 768 775 1280 1286 c 1,15,-1
 1280 1542 l 1,16,-1
 1024 1542 l 1,17,18
 1024 1543 1024 1543 768 1286 c 1,19,-1
 512 1286 l 1,20,-1
 256 1414 l 1,21,22
 255 1414 255 1414 512 1542 c 1,23,-1
 768 1542 l 1,24,-1
 1024 1798 l 1,25,-1
 2048 1798 l 1,26,-1
 2304 1670 l 1,27,-1
 2048 1542 l 1,28,-1
 1536 1542 l 1,29,30
 1536 1543 1536 1543 1536 1286 c 1,31,-1
 2048 774 l 1,32,33
 2048 773 2048 773 1536 262 c 1,34,-1
 1408 6 l 1,35,-1
 1408 6 l 1,10,11
EndSplineSet
EndChar

StartChar: n
Encoding: 110 110 52
Width: 2559
Flags: W
LayerCount: 3
Fore
SplineSet
1152 6 m 1,0,1
 1152 5 1152 5 1024 262 c 1,2,-1
 768 518 l 1,3,-1
 1536 1286 l 1,4,-1
 1536 1542 l 1,5,-1
 1024 1542 l 1,6,7
 1024 1543 1024 1543 768 1286 c 1,8,-1
 512 1286 l 1,9,-1
 256 1414 l 1,10,11
 255 1414 255 1414 512 1542 c 1,12,-1
 768 1542 l 1,13,-1
 1024 1798 l 1,14,-1
 2048 1798 l 1,15,-1
 2304 1670 l 1,16,-1
 2048 1542 l 1,17,-1
 1792 1542 l 1,18,19
 1792 1543 1792 1543 1792 1286 c 1,20,-1
 1024 518 l 1,21,-1
 1280 262 l 1,22,-1
 1152 6 l 1,23,-1
 1152 6 l 1,0,1
EndSplineSet
EndChar

StartChar: o
Encoding: 111 111 53
Width: 2559
Flags: W
LayerCount: 3
Fore
SplineSet
2048 134 m 1,0,-1
 1536 390 l 1,1,-1
 1408 518 l 1,2,-1
 1280 774 l 1,3,-1
 1280 1542 l 1,4,-1
 512 1542 l 1,5,-1
 512 518 l 1,6,-1
 1024 518 l 1,7,-1
 1280 390 l 1,8,-1
 1024 262 l 1,9,10
 1023 262 1023 262 512 262 c 1,11,-1
 256 518 l 1,12,-1
 256 1542 l 1,13,14
 255 1542 255 1542 512 1798 c 1,15,-1
 1280 1798 l 1,16,-1
 1536 1542 l 1,17,-1
 1536 774 l 1,18,-1
 1792 518 l 1,19,-1
 2304 262 l 1,20,-1
 2048 134 l 1,21,-1
 2048 134 l 1,0,-1
EndSplineSet
EndChar

StartChar: p
Encoding: 112 112 54
Width: 2559
Flags: W
LayerCount: 3
Fore
SplineSet
384 6 m 1,0,1
 384 5 384 5 256 262 c 1,2,-1
 256 1542 l 1,3,4
 255 1542 255 1542 512 1798 c 1,5,-1
 2048 1798 l 1,6,-1
 2304 1542 l 1,7,8
 2304 1543 2304 1543 2176 1286 c 1,9,-1
 2048 1542 l 1,10,-1
 512 1542 l 1,11,-1
 512 1030 l 1,12,-1
 1024 774 l 1,13,-1
 1280 1030 l 1,14,-1
 1280 646 l 1,15,-1
 1536 518 l 1,16,-1
 1792 774 l 1,17,-1
 1792 390 l 1,18,-1
 1920 262 l 1,19,-1
 2048 6 l 1,20,-1
 512 774 l 1,21,22
 512 773 512 773 512 262 c 1,23,-1
 384 6 l 1,24,-1
 384 6 l 1,0,1
EndSplineSet
EndChar

StartChar: q
Encoding: 113 113 55
Width: 2559
Flags: W
LayerCount: 3
Fore
SplineSet
512 6 m 1,0,-1
 256 134 l 1,1,2
 255 133 255 133 512 262 c 1,3,-1
 2048 262 l 1,4,-1
 512 1030 l 1,5,-1
 384 1158 l 1,6,-1
 384 1286 l 1,7,8
 383 1286 383 1286 512 1414 c 1,9,-1
 1280 1798 l 1,10,-1
 2048 1798 l 1,11,-1
 2304 1542 l 1,12,-1
 1280 1542 l 1,13,-1
 640 1222 l 1,14,-1
 1024 1030 l 1,15,-1
 1280 1286 l 1,16,-1
 1280 902 l 1,17,-1
 1536 774 l 1,18,-1
 1792 1030 l 1,19,-1
 1792 646 l 1,20,-1
 2048 518 l 1,21,-1
 2304 262 l 1,22,-1
 2048 6 l 1,23,-1
 512 6 l 1,0,-1
EndSplineSet
EndChar

StartChar: h
Encoding: 104 104 56
Width: 2559
Flags: W
LayerCount: 3
Fore
SplineSet
2048 134 m 1,0,-1
 1280 518 l 1,1,-1
 1280 519 l 1,2,-1
 1152 646 l 1,3,-1
 1024 518 l 1,4,5
 1023 518 1023 518 512 262 c 1,6,-1
 256 262 l 1,7,8
 255 262 255 262 512 518 c 1,9,-1
 1024 774 l 1,10,-1
 1152 1030 l 1,11,12
 1151 1030 1151 1030 512 1030 c 1,13,-1
 256 1158 l 1,14,15
 255 1158 255 1158 512 1286 c 1,16,-1
 1280 1286 l 1,17,-1
 1024 1798 l 1,18,-1
 1280 1670 l 1,19,-1
 1536 1414 l 1,20,-1
 2048 1670 l 1,21,-1
 2304 1542 l 1,22,23
 2305 1542 2305 1542 1536 1158 c 1,24,-1
 1408 1030 l 1,25,-1
 1280 774 l 1,26,27
 1280 773 1280 773 2304 262 c 1,28,-1
 2048 134 l 1,29,-1
 2048 134 l 1,0,-1
EndSplineSet
EndChar

StartChar: z
Encoding: 122 122 57
Width: 2559
Flags: W
LayerCount: 3
Fore
SplineSet
2048 262 m 1,0,-1
 2048 774 l 1,1,-1
 1024 774 l 1,2,-1
 1024 775 l 1,3,-1
 896 902 l 1,4,-1
 768 774 l 1,5,-1
 640 518 l 1,6,-1
 768 262 l 1,7,-1
 2048 262 l 1,0,-1
768 6 m 1,8,9
 768 5 768 5 512 262 c 1,10,-1
 384 518 l 1,11,12
 383 518 383 518 512 774 c 1,13,-1
 896 1158 l 1,14,-1
 1152 902 l 1,15,-1
 1920 902 l 1,16,-1
 2048 1030 l 1,17,-1
 2048 1542 l 1,18,-1
 512 1542 l 1,19,-1
 256 1670 l 1,20,21
 255 1670 255 1670 512 1798 c 1,22,-1
 2048 1798 l 1,23,-1
 2304 1542 l 1,24,25
 2304 1541 2304 1541 2304 262 c 1,26,-1
 2048 6 l 1,27,-1
 768 6 l 1,8,9
EndSplineSet
EndChar

StartChar: y
Encoding: 121 121 58
Width: 2559
Flags: W
LayerCount: 3
Fore
SplineSet
512 6 m 1,0,-1
 256 134 l 1,1,2
 255 133 255 133 512 262 c 1,3,-1
 2048 262 l 1,4,-1
 2048 774 l 1,5,-1
 384 774 l 1,6,-1
 640 902 l 1,7,-1
 1920 902 l 1,8,-1
 2048 1030 l 1,9,-1
 2048 1542 l 1,10,-1
 512 1542 l 1,11,-1
 256 1670 l 1,12,13
 255 1670 255 1670 512 1798 c 1,14,-1
 2048 1798 l 1,15,-1
 2304 1542 l 1,16,17
 2304 1541 2304 1541 2304 262 c 1,18,-1
 2048 6 l 1,19,-1
 512 6 l 1,0,-1
EndSplineSet
EndChar

StartChar: x
Encoding: 120 120 59
Width: 2559
Flags: W
LayerCount: 3
Fore
SplineSet
768 6 m 1,0,1
 768 5 768 5 512 262 c 1,2,-1
 384 518 l 1,3,4
 383 518 383 518 512 774 c 1,5,-1
 768 1030 l 1,6,-1
 1536 1414 l 1,7,-1
 1408 1158 l 1,8,-1
 1280 1030 l 1,9,-1
 768 774 l 1,10,-1
 640 518 l 1,11,-1
 768 262 l 1,12,-1
 2048 262 l 1,13,-1
 2048 1542 l 1,14,-1
 512 1542 l 1,15,-1
 256 1670 l 1,16,17
 255 1670 255 1670 512 1798 c 1,18,-1
 2048 1798 l 1,19,-1
 2304 1542 l 1,20,21
 2304 1541 2304 1541 2304 262 c 1,22,-1
 2048 6 l 1,23,-1
 768 6 l 1,0,1
EndSplineSet
EndChar

StartChar: asciitilde
Encoding: 126 126 60
Width: 1029
Flags: W
LayerCount: 3
Fore
SplineSet
125 774 m 5,0,-1
 509 1542 l 5,1,-1
 893 774 l 5,2,-1
 637 1030 l 5,3,-1
 637 1031 l 5,4,-1
 509 1158 l 5,5,-1
 125 774 l 5,6,-1
 125 774 l 5,0,-1
EndSplineSet
EndChar

StartChar: U
Encoding: 85 85 61
Width: 2559
Flags: W
LayerCount: 3
Fore
SplineSet
768 6 m 1,0,1
 768 5 768 5 512 262 c 1,2,-1
 384 518 l 1,3,4
 383 518 383 518 512 774 c 1,5,-1
 768 1030 l 1,6,-1
 768 1414 l 1,7,-1
 1024 1158 l 1,8,-1
 1280 1286 l 1,9,-1
 1280 1670 l 1,10,-1
 1536 1414 l 1,11,-1
 1792 1542 l 1,12,13
 1792 1543 1792 1543 1664 1286 c 1,14,15
 1665 1286 1665 1286 1536 1158 c 1,16,-1
 768 774 l 1,17,-1
 640 518 l 1,18,-1
 768 262 l 1,19,-1
 2048 262 l 1,20,-1
 2304 134 l 1,21,-1
 2048 6 l 1,22,-1
 768 6 l 1,0,1
EndSplineSet
EndChar

StartChar: t
Encoding: 116 116 62
Width: 2559
Flags: W
LayerCount: 3
Fore
SplineSet
768 6 m 1,0,1
 768 5 768 5 512 262 c 1,2,-1
 384 518 l 1,3,4
 383 518 383 518 512 774 c 1,5,-1
 768 1030 l 1,6,-1
 1792 1542 l 1,7,8
 1792 1543 1792 1543 1664 1286 c 1,9,10
 1665 1286 1665 1286 1536 1158 c 1,11,-1
 1536 774 l 1,12,-1
 1280 1030 l 1,13,-1
 1024 902 l 1,14,-1
 1024 518 l 1,15,-1
 768 774 l 1,16,-1
 640 518 l 1,17,-1
 768 262 l 1,18,-1
 2048 262 l 1,19,-1
 2304 134 l 1,20,-1
 2048 6 l 1,21,-1
 768 6 l 1,0,1
EndSplineSet
EndChar

StartChar: u
Encoding: 117 117 63
Width: 2559
Flags: W
LayerCount: 3
Fore
SplineSet
768 6 m 1,0,1
 768 5 768 5 512 262 c 1,2,-1
 384 518 l 1,3,4
 383 518 383 518 512 774 c 1,5,-1
 768 1030 l 1,6,-1
 1024 1158 l 1,7,-1
 1024 1542 l 1,8,-1
 1152 1798 l 1,9,-1
 1280 1542 l 1,10,11
 1280 1543 1280 1543 1280 1286 c 1,12,-1
 1792 1542 l 1,13,14
 1792 1543 1792 1543 1664 1286 c 1,15,16
 1665 1286 1665 1286 1536 1158 c 1,17,-1
 768 774 l 1,18,-1
 640 518 l 1,19,-1
 768 262 l 1,20,-1
 2048 262 l 1,21,-1
 2304 134 l 1,22,-1
 2048 6 l 1,23,-1
 768 6 l 1,0,1
EndSplineSet
EndChar

StartChar: at
Encoding: 64 64 64
Width: 2559
Flags: W
LayerCount: 3
Fore
SplineSet
1280 646 m 5,0,-1
 1152 902 l 5,1,-1
 1280 1158 l 5,2,-1
 1408 902 l 5,3,-1
 1280 646 l 5,4,-1
 1280 646 l 5,0,-1
2048 262 m 1,5,-1
 2048 1542 l 1,6,-1
 512 1542 l 1,7,8
 512 1541 512 1541 512 262 c 1,9,-1
 2048 262 l 1,5,-1
512 6 m 1,10,11
 512 5 512 5 256 262 c 1,12,-1
 256 1542 l 1,13,14
 255 1542 255 1542 512 1798 c 1,15,-1
 2048 1798 l 1,16,-1
 2304 1542 l 1,17,18
 2304 1541 2304 1541 2304 262 c 1,19,-1
 2048 6 l 1,20,-1
 512 6 l 1,10,11
EndSplineSet
EndChar

StartChar: w
Encoding: 119 119 65
Width: 2559
Flags: W
LayerCount: 3
Fore
SplineSet
1280 1030 m 1,0,-1
 1408 1286 l 1,1,-1
 1536 1414 l 1,2,-1
 1536 1542 l 1,3,-1
 1024 1542 l 1,4,-1
 1024 1030 l 1,5,-1
 1280 1030 l 1,0,-1
896 6 m 1,6,7
 896 5 896 5 768 262 c 1,8,-1
 768 1542 l 1,9,-1
 512 1542 l 1,10,-1
 256 1670 l 1,11,12
 255 1670 255 1670 512 1798 c 1,13,-1
 2048 1798 l 1,14,-1
 2304 1670 l 1,15,-1
 2048 1542 l 1,16,-1
 1792 1542 l 1,17,18
 1792 1543 1792 1543 1792 1286 c 1,19,20
 1793 1286 1793 1286 1536 1030 c 1,21,-1
 1534 1030 l 1,22,-1
 1408 902 l 1,23,-1
 1792 518 l 1,24,-1
 2304 262 l 1,25,-1
 2048 134 l 1,26,-1
 1536 390 l 1,27,-1
 1408 518 l 1,28,-1
 1280 774 l 1,29,-1
 1024 774 l 1,30,31
 1024 773 1024 773 1024 262 c 1,32,-1
 896 6 l 1,33,-1
 896 6 l 1,6,7
EndSplineSet
EndChar

StartChar: question
Encoding: 63 63 66
Width: 1185
Flags: W
LayerCount: 3
Fore
SplineSet
837 1030 m 17,0,-1
 325 6 l 1,1,-1
 325 -122 l 2,2,3
 325 -175 325 -175 287 -213 c 0,4,5
 249 -250 249 -250 197 -250 c 1,6,7
 197 -250 197 -250 197 -250 c 1,8,9
 144 -250 144 -250 106 -213 c 0,10,11
 69 -175 69 -175 69 -122 c 2,12,13
 69 -122 69 -122 69 6 c 1,14,-1
 581 1030 l 1,15,-1
 837 1542 l 1,16,-1
 837 1670 l 2,17,18
 837 1722 837 1722 874 1760 c 0,19,20
 912 1798 912 1798 965 1798 c 0,21,22
 1017 1798 1017 1798 1055 1760 c 256,23,24
 1093 1722 1093 1722 1093 1670 c 2,25,26
 1093 1670 1093 1670 1093 1542 c 9,27,-1
 837 1030 l 17,0,-1
EndSplineSet
EndChar

StartChar: colon
Encoding: 58 58 67
Width: 471
Flags: W
LayerCount: 3
Fore
SplineSet
241 296 m 1,0,-1
 113 552 l 1,1,-1
 241 808 l 1,2,-1
 369 552 l 1,3,-1
 241 296 l 1,4,-1
 241 296 l 1,0,-1
241 808 m 1,5,-1
 113 1064 l 1,6,-1
 241 1320 l 1,7,-1
 369 1064 l 1,8,-1
 241 808 l 1,9,-1
 241 808 l 1,5,-1
EndSplineSet
EndChar

StartChar: semicolon
Encoding: 59 59 68
Width: 471
Flags: W
LayerCount: 3
Fore
SplineSet
241 296 m 1,0,-1
 113 552 l 1,1,-1
 241 808 l 1,2,-1
 369 552 l 1,3,-1
 241 296 l 1,4,-1
 241 296 l 1,0,-1
241 808 m 1,5,-1
 113 1064 l 1,6,-1
 241 1320 l 1,7,-1
 369 1064 l 1,8,-1
 241 808 l 1,9,-1
 241 808 l 1,5,-1
EndSplineSet
EndChar

StartChar: quotedbl
Encoding: 34 34 69
Width: 2560
Flags: W
LayerCount: 3
Fore
SplineSet
746.033203125 1104.11035156 m 1,0,-1
 1508.85644531 709.926757812 l 1,1,-1
 735.814453125 336.177734375 l 1,2,-1
 995.198242188 588.75 l 1,3,-1
 996.198242188 588.736328125 l 1,4,-1
 1124.890625 715.03515625 l 1,5,-1
 746.033203125 1104.11035156 l 1,6,-1
 746.033203125 1104.11035156 l 1,0,-1
1130 1099 m 1,7,-1
 1892.82226562 704.81640625 l 1,8,-1
 1119.78027344 331.068359375 l 1,9,-1
 1379.1640625 583.639648438 l 1,10,-1
 1380.1640625 583.626953125 l 1,11,-1
 1508.85644531 709.926757812 l 1,12,-1
 1130 1099 l 1,13,-1
 1130 1099 l 1,7,-1
EndSplineSet
Validated: 6815749
EndChar

StartChar: dollar
Encoding: 36 36 70
Width: 2559
Flags: W
LayerCount: 3
Fore
SplineSet
395 1279 m 1,0,-1
 112 1379 l 1,1,2
 112 1379 112 1379 395 1493 c 1,3,-1
 617 1493 l 1,4,5
 617 1493 617 1493 617 1493 c 0,6,7
 844 1493 844 1493 1643 1494 c 4,8,9
 1753 1494 1753 1494 1873 1494 c 1,10,-1
 2134 1386 l 1,11,12
 2134 1386 2134 1386 1873 1280 c 1,13,-1
 395 1279 l 1,0,-1
2048 384 m 1,14,-1
 1536 640 l 1,15,-1
 1152 1024 l 1,16,17
 1153 1024 1153 1024 1536 1792 c 1,18,-1
 1024 1792 l 1,19,-1
 768 1280 l 1,20,-1
 768 768 l 1,21,-1
 640 512 l 1,22,-1
 512 768 l 1,23,-1
 512 1280 l 1,24,-1
 768 1792 l 1,25,-1
 512 1792 l 1,26,-1
 256 1920 l 1,27,28
 255 1920 255 1920 512 2048 c 1,29,-1
 1792 2048 l 1,30,-1
 2048 1920 l 1,31,-1
 1792 1792 l 1,32,33
 1793 1792 1793 1792 1536 1280 c 1,34,-1
 1534 1280 l 1,35,-1
 1408 1152 l 1,36,-1
 1792 768 l 1,37,-1
 2304 512 l 1,38,-1
 2048 384 l 1,14,-1
EndSplineSet
EndChar

StartChar: exclam
Encoding: 33 33 71
Width: 1767
Flags: W
LayerCount: 3
Fore
SplineSet
1375 1280 m 17,0,-1
 863 256 l 1,1,-1
 863 128 l 2,2,3
 863 75 863 75 825 37 c 0,4,5
 787 0 787 0 735 0 c 1,6,7
 735 0 735 0 735 0 c 1,8,9
 682 0 682 0 644 37 c 0,10,11
 607 75 607 75 607 128 c 2,12,13
 607 128 607 128 607 256 c 1,14,-1
 1119 1280 l 1,15,-1
 1375 1792 l 1,16,-1
 1375 1920 l 2,17,18
 1375 1972 1375 1972 1412 2010 c 0,19,20
 1450 2048 1450 2048 1503 2048 c 0,21,22
 1555 2048 1555 2048 1593 2010 c 256,23,24
 1631 1972 1631 1972 1631 1920 c 2,25,26
 1631 1920 1631 1920 1631 1792 c 9,27,-1
 1375 1280 l 17,0,-1
875 1280 m 17,28,-1
 363 256 l 1,29,-1
 363 128 l 2,30,31
 363 75 363 75 325 37 c 0,32,33
 287 0 287 0 235 0 c 1,34,35
 235 0 235 0 235 0 c 1,36,37
 182 0 182 0 144 37 c 0,38,39
 107 75 107 75 107 128 c 2,40,41
 107 128 107 128 107 256 c 1,42,-1
 619 1280 l 1,43,-1
 875 1792 l 1,44,-1
 875 1920 l 2,45,46
 875 1972 875 1972 912 2010 c 0,47,48
 950 2048 950 2048 1003 2048 c 0,49,50
 1055 2048 1055 2048 1093 2010 c 256,51,52
 1131 1972 1131 1972 1131 1920 c 2,53,54
 1131 1920 1131 1920 1131 1792 c 9,55,-1
 875 1280 l 17,28,-1
EndSplineSet
EndChar

StartChar: quotedbl
Encoding: 34 34 72
Width: 495
Flags: W
LayerCount: 3
Fore
SplineSet
252 1052 m 5,0,1
 252 1052 252 1052 169 1137 c 5,2,-1
 169 1863 l 5,3,-1
 247 1951 l 21,4,5
 247 1951 247 1951 333 1863 c 5,6,-1
 333 1137 l 5,7,-1
 252 1052 l 5,0,1
EndSplineSet
EndChar

StartChar: period
Encoding: 46 46 73
Width: 2048
Flags: W
LayerCount: 3
Fore
SplineSet
847 62 m 5,0,1
 847 62 847 62 852 132 c 5,2,-1
 1124 604 l 5,3,-1
 1182 647 l 21,4,5
 1182 647 1182 647 1177 573 c 5,6,-1
 905 102 l 5,7,-1
 847 62 l 5,0,1
847 646 m 5,8,9
 847 646 847 646 905 607 c 5,10,-1
 1177 135 l 5,11,-1
 1185 62 l 21,12,13
 1185 62 1185 62 1124 104 c 5,14,-1
 852 576 l 5,15,-1
 847 646 l 5,8,9
678 353 m 5,16,17
 678 353 678 353 742 384 c 5,18,-1
 1286 384 l 5,19,-1
 1352 355 l 21,20,21
 1352 355 1352 355 1286 322 c 5,22,-1
 742 322 l 5,23,-1
 678 353 l 5,16,17
EndSplineSet
EndChar

StartChar: comma
Encoding: 44 44 74
Width: 456
Flags: W
LayerCount: 3
Fore
SplineSet
230 -154 m 1,0,-1
 102 102 l 1,1,-1
 230 358 l 1,2,-1
 358 102 l 1,3,-1
 230 -154 l 1,4,-1
 230 -154 l 1,0,-1
EndSplineSet
EndChar

StartChar: plus
Encoding: 43 43 75
Width: 999
Flags: W
LayerCount: 3
Fore
SplineSet
122 1242 m 1,0,-1
 890 858 l 1,1,-1
 122 474 l 1,2,-1
 378 730 l 1,3,-1
 379 730 l 1,4,-1
 506 858 l 1,5,-1
 122 1242 l 1,6,-1
 122 1242 l 1,0,-1
EndSplineSet
EndChar

StartChar: hyphen
Encoding: 45 45 76
Width: 999
Flags: W
LayerCount: 3
Fore
SplineSet
857 474 m 1,0,-1
 89 858 l 1,1,-1
 857 1242 l 1,2,-1
 601 986 l 1,3,-1
 600 986 l 1,4,-1
 473 858 l 1,5,-1
 857 474 l 1,6,-1
 857 474 l 1,0,-1
EndSplineSet
EndChar

StartChar: slash
Encoding: 47 47 77
Width: 909
Flags: W
LayerCount: 3
Fore
SplineSet
870 1550 m 1,0,-1
 252 0 l 1,1,-1
 39 0 l 1,2,-1
 39 14 l 1,3,-1
 657 1565 l 1,4,-1
 870 1565 l 1,5,-1
 870 1550 l 1,0,-1
EndSplineSet
Validated: 6291457
EndChar

StartChar: asterisk
Encoding: 42 42 78
Width: 1443
Flags: W
LayerCount: 3
Fore
SplineSet
522 1242 m 1,0,-1
 1290 858 l 1,1,-1
 522 474 l 1,2,-1
 778 730 l 1,3,-1
 779 730 l 1,4,-1
 906 858 l 1,5,-1
 522 1242 l 1,6,-1
 522 1242 l 1,0,-1
122 1242 m 1,7,-1
 890 858 l 1,8,-1
 122 474 l 1,9,-1
 378 730 l 1,10,-1
 379 730 l 1,11,-1
 506 858 l 1,12,-1
 122 1242 l 1,13,-1
 122 1242 l 1,7,-1
EndSplineSet
EndChar

StartChar: slash
Encoding: 47 47 79
Width: 1443
Flags: W
LayerCount: 3
Fore
SplineSet
890 1242 m 5,0,-1
 122 858 l 5,1,-1
 890 474 l 5,2,-1
 634 730 l 5,3,-1
 633 730 l 5,4,-1
 506 858 l 5,5,-1
 890 1242 l 5,6,-1
 890 1242 l 5,0,-1
1290 1242 m 5,7,-1
 522 858 l 5,8,-1
 1290 474 l 5,9,-1
 1034 730 l 5,10,-1
 1033 730 l 5,11,-1
 906 858 l 5,12,-1
 1290 1242 l 5,13,-1
 1290 1242 l 5,7,-1
EndSplineSet
EndChar

StartChar: asciicircum
Encoding: 94 94 80
Width: 1812
Flags: W
LayerCount: 3
Fore
SplineSet
922 1242 m 1,0,-1
 1690 858 l 1,1,-1
 922 474 l 1,2,-1
 1178 730 l 1,3,-1
 1179 730 l 1,4,-1
 1306 858 l 1,5,-1
 922 1242 l 1,6,-1
 922 1242 l 1,0,-1
522 1242 m 1,7,-1
 1290 858 l 1,8,-1
 522 474 l 1,9,-1
 778 730 l 1,10,-1
 779 730 l 1,11,-1
 906 858 l 1,12,-1
 522 1242 l 1,13,-1
 522 1242 l 1,7,-1
122 1242 m 1,14,-1
 890 858 l 1,15,-1
 122 474 l 1,16,-1
 378 730 l 1,17,-1
 379 730 l 1,18,-1
 506 858 l 1,19,-1
 122 1242 l 1,20,-1
 122 1242 l 1,14,-1
EndSplineSet
EndChar

StartChar: equal
Encoding: 61 61 81
Width: 1189
Flags: W
LayerCount: 3
Fore
SplineSet
152 851 m 5,0,1
 152 851 152 851 236 934 c 5,2,-1
 962 934 l 5,3,-1
 1051 856 l 21,4,5
 1051 856 1051 856 962 770 c 5,6,-1
 236 770 l 5,7,-1
 152 851 l 5,0,1
EndSplineSet
EndChar

StartChar: underscore
Encoding: 95 95 82
Width: 738
Flags: W
LayerCount: 3
Fore
SplineSet
739 -160 m 5,0,-1
 0 -160 l 5,1,-1
 0 -49 l 5,2,-1
 739 -49 l 5,3,-1
 739 -160 l 5,0,-1
EndSplineSet
EndChar

StartChar: Nacute
Encoding: 323 323 83
Width: 2559
Flags: W
LayerCount: 3
Fore
SplineSet
827 1479 m 1,0,1
 827 1479 827 1479 912 1562 c 1,2,-1
 1637 1562 l 1,3,-1
 1726 1484 l 17,4,5
 1726 1484 1726 1484 1637 1398 c 1,6,-1
 912 1398 l 1,7,-1
 827 1479 l 1,0,1
1152 -244 m 1,8,-1
 1024 12 l 1,9,-1
 709 362 l 1,10,11
 710 362 710 362 1536 886 c 1,12,-1
 1536 1042 l 1,13,-1
 1024 1042 l 1,14,-1
 768 786 l 1,15,-1
 512 786 l 1,16,-1
 256 914 l 1,17,18
 255 914 255 914 512 1042 c 1,19,-1
 768 1042 l 1,20,-1
 1024 1298 l 1,21,-1
 2048 1298 l 1,22,-1
 2304 1170 l 1,23,-1
 2048 1042 l 1,24,-1
 1792 1042 l 1,25,-1
 1792 786 l 1,26,-1
 1024 268 l 1,27,-1
 1280 12 l 1,28,-1
 1152 -244 l 1,29,-1
 1152 -244 l 1,8,-1
EndSplineSet
EndChar

StartChar: nacute
Encoding: 324 324 84
Width: 2559
Flags: W
LayerCount: 3
Fore
SplineSet
1276 1476 m 1,0,1
 1276 1476 1276 1476 1193 1560 c 1,2,-1
 1195 1641 l 5,3,-1
 1272 1730 l 21,4,5
 1272 1730 1272 1730 1358 1641 c 5,6,-1
 1357 1560 l 1,7,-1
 1276 1476 l 1,0,1
827 1479 m 1,8,9
 827 1479 827 1479 912 1562 c 1,10,-1
 1637 1562 l 1,11,-1
 1726 1484 l 17,12,13
 1726 1484 1726 1484 1637 1398 c 1,14,-1
 912 1398 l 1,15,-1
 827 1479 l 1,8,9
1152 -244 m 1,16,-1
 1024 12 l 1,17,-1
 709 362 l 1,18,19
 710 362 710 362 1536 886 c 1,20,-1
 1536 1042 l 1,21,-1
 1024 1042 l 1,22,-1
 768 786 l 1,23,-1
 512 786 l 1,24,-1
 256 914 l 1,25,26
 255 914 255 914 512 1042 c 1,27,-1
 768 1042 l 1,28,-1
 1024 1298 l 1,29,-1
 2048 1298 l 1,30,-1
 2304 1170 l 1,31,-1
 2048 1042 l 1,32,-1
 1792 1042 l 1,33,-1
 1792 786 l 1,34,-1
 1024 268 l 1,35,-1
 1280 12 l 1,36,-1
 1152 -244 l 1,16,-1
EndSplineSet
EndChar

StartChar: uni0145
Encoding: 325 325 85
Width: 2559
Flags: W
LayerCount: 3
Fore
SplineSet
302 101 m 1,0,1
 302 101 302 101 471 184 c 1,2,-1
 1923 184 l 1,3,-1
 2100 106 l 17,4,5
 2100 106 2100 106 1923 20 c 1,6,-1
 471 20 l 1,7,-1
 302 101 l 1,0,1
1152 -244 m 1,8,-1
 1024 12 l 1,9,-1
 768 268 l 1,10,-1
 1536 786 l 5,11,-1
 1536 1042 l 5,12,-1
 1024 1042 l 5,13,-1
 768 786 l 5,14,-1
 512 786 l 5,15,-1
 256 914 l 5,16,17
 255 914 255 914 512 1042 c 5,18,-1
 768 1042 l 5,19,-1
 1024 1298 l 5,20,-1
 2048 1298 l 5,21,-1
 2304 1170 l 5,22,-1
 2048 1042 l 5,23,-1
 1792 1042 l 5,24,-1
 1792 786 l 5,25,-1
 1024 268 l 1,26,-1
 1280 12 l 1,27,-1
 1152 -244 l 1,28,-1
 1152 -244 l 1,8,-1
EndSplineSet
EndChar

StartChar: uni0146
Encoding: 326 326 86
Width: 2559
Flags: W
LayerCount: 3
Fore
SplineSet
302 101 m 1,0,1
 302 101 302 101 471 184 c 1,2,-1
 1923 184 l 1,3,-1
 2100 106 l 17,4,5
 2100 106 2100 106 1923 20 c 1,6,-1
 471 20 l 1,7,-1
 302 101 l 1,0,1
1024 12 m 1025,8,-1
1280 12 m 1025,9,-1
1205 390 m 1,10,-1
 576 389 l 1,11,-1
 832 517 l 1,12,-1
 1138 518 l 1,13,-1
 1316 638 l 1,14,-1
 1864 639 l 1,15,-1
 1608 511 l 1,16,-1
 1382 509 l 1,17,-1
 1205 390 l 1,10,-1
1152 -244 m 1,18,-1
 1024 12 l 1,19,-1
 768 268 l 1,20,-1
 1536 786 l 1,21,-1
 1536 1042 l 1,22,-1
 1024 1042 l 1,23,-1
 768 786 l 1,24,-1
 512 786 l 1,25,-1
 256 914 l 1,26,27
 255 914 255 914 512 1042 c 1,28,-1
 768 1042 l 1,29,-1
 1024 1298 l 1,30,-1
 2048 1298 l 1,31,-1
 2304 1170 l 1,32,-1
 2048 1042 l 1,33,-1
 1792 1042 l 1,34,-1
 1792 786 l 1,35,-1
 1024 268 l 1,36,-1
 1280 12 l 1,37,-1
 1152 -244 l 1,38,-1
 1152 -244 l 1,18,-1
EndSplineSet
EndChar

StartChar: Ncaron
Encoding: 327 327 87
Width: 2559
Flags: W
LayerCount: 3
Fore
SplineSet
527 1451 m 5,0,1
 527 1451 527 1451 653 1534 c 5,2,-1
 1742 1534 l 5,3,-1
 1876 1456 l 21,4,5
 1876 1456 1876 1456 1742 1370 c 5,6,-1
 653 1370 l 5,7,-1
 527 1451 l 5,0,1
1068 1362 m 1029,8,-1
1261 1362 m 1029,9,-1
1068 1362 m 1029,10,-1
1261 1362 m 1029,11,-1
302 101 m 1,12,13
 302 101 302 101 471 184 c 1,14,-1
 1923 184 l 1,15,-1
 2100 106 l 17,16,17
 2100 106 2100 106 1923 20 c 1,18,-1
 471 20 l 1,19,-1
 302 101 l 1,12,13
1024 12 m 1025,20,-1
1280 12 m 1025,21,-1
1205 390 m 1,22,-1
 576 389 l 1,23,-1
 832 517 l 1,24,-1
 1138 518 l 1,25,-1
 1316 638 l 1,26,-1
 1864 639 l 1,27,-1
 1608 511 l 1,28,-1
 1382 509 l 1,29,-1
 1205 390 l 1,22,-1
1152 -244 m 1,30,-1
 1024 12 l 1,31,-1
 768 268 l 1,32,-1
 1536 786 l 1,33,-1
 1536 1042 l 1,34,-1
 1024 1042 l 1,35,-1
 768 786 l 1,36,-1
 512 786 l 1,37,-1
 256 914 l 1,38,39
 255 914 255 914 512 1042 c 1,40,-1
 768 1042 l 1,41,-1
 1024 1298 l 1,42,-1
 2048 1298 l 1,43,-1
 2304 1170 l 1,44,-1
 2048 1042 l 1,45,-1
 1792 1042 l 1,46,-1
 1792 786 l 1,47,-1
 1024 268 l 1,48,-1
 1280 12 l 1,49,-1
 1152 -244 l 1,50,-1
 1152 -244 l 1,30,-1
EndSplineSet
EndChar

StartChar: ncaron
Encoding: 328 328 88
Width: 2559
Flags: W
LayerCount: 3
Fore
SplineSet
2052 -98 m 1,0,1
 2052 -98 2052 -98 1969 -13 c 1,2,-1
 1969 713 l 1,3,-1
 2047 801 l 17,4,5
 2047 801 2047 801 2133 713 c 1,6,-1
 2133 -13 l 1,7,-1
 2052 -98 l 1,0,1
1152 -244 m 1,8,-1
 1024 12 l 1,9,-1
 709 362 l 1,10,11
 710 362 710 362 1536 886 c 1,12,-1
 1536 1042 l 1,13,-1
 1024 1042 l 1,14,-1
 768 786 l 1,15,-1
 512 786 l 1,16,-1
 256 914 l 1,17,18
 255 914 255 914 512 1042 c 1,19,-1
 768 1042 l 1,20,-1
 1024 1298 l 1,21,-1
 2048 1298 l 1,22,-1
 2304 1170 l 1,23,-1
 2048 1042 l 1,24,-1
 1792 1042 l 1,25,-1
 1792 786 l 1,26,-1
 1024 268 l 1,27,-1
 1280 12 l 1,28,-1
 1152 -244 l 1,29,-1
 1152 -244 l 1,8,-1
EndSplineSet
EndChar

StartChar: napostrophe
Encoding: 329 329 89
Width: 2559
Flags: W
LayerCount: 3
Fore
SplineSet
2133 366 m 1,0,-1
 2055 244 l 1,1,-1
 1659 370 l 5,2,-1
 2055 500 l 1,3,-1
 2133 366 l 1,4,-1
 2133 366 l 1,0,-1
2052 -98 m 1,5,6
 2052 -98 2052 -98 1969 -13 c 1,7,-1
 1969 713 l 1,8,-1
 2047 801 l 17,9,10
 2047 801 2047 801 2133 713 c 1,11,-1
 2133 -13 l 1,12,-1
 2052 -98 l 1,5,6
1152 -244 m 1,13,-1
 1024 12 l 1,14,-1
 709 362 l 1,15,16
 710 362 710 362 1536 886 c 1,17,-1
 1536 1042 l 1,18,-1
 1024 1042 l 1,19,-1
 768 786 l 1,20,-1
 512 786 l 1,21,-1
 256 914 l 1,22,23
 255 914 255 914 512 1042 c 1,24,-1
 768 1042 l 1,25,-1
 1024 1298 l 1,26,-1
 2048 1298 l 1,27,-1
 2304 1170 l 1,28,-1
 2048 1042 l 1,29,-1
 1792 1042 l 1,30,-1
 1792 786 l 1,31,-1
 1024 268 l 1,32,-1
 1280 12 l 1,33,-1
 1152 -244 l 1,34,-1
 1152 -244 l 1,13,-1
EndSplineSet
EndChar

StartChar: Eng
Encoding: 330 330 90
Width: 2559
Flags: W
LayerCount: 3
Fore
SplineSet
1216 -119 m 1,0,-1
 1146 7 l 1,1,-1
 1024 268 l 5,2,-1
 1146 199 l 1,3,-1
 1210 135 l 1,4,-1
 1274 7 l 1,5,-1
 1658 7 l 1,6,-1
 1914 263 l 1,7,-1
 1914 647 l 1,8,-1
 1978 775 l 1,9,-1
 2042 647 l 1,10,-1
 2042 263 l 1,11,-1
 1658 -121 l 1,12,-1
 1216 -119 l 1,0,-1
1152 -244 m 1,13,-1
 1024 12 l 1,14,-1
 709 362 l 1,15,16
 710 362 710 362 1536 886 c 1,17,-1
 1536 1042 l 1,18,-1
 1024 1042 l 1,19,-1
 768 786 l 1,20,-1
 512 786 l 1,21,-1
 256 914 l 1,22,23
 255 914 255 914 512 1042 c 1,24,-1
 768 1042 l 1,25,-1
 1024 1298 l 1,26,-1
 2048 1298 l 1,27,-1
 2304 1170 l 1,28,-1
 2048 1042 l 1,29,-1
 1792 1042 l 1,30,-1
 1792 786 l 1,31,-1
 1024 268 l 1,32,-1
 1280 12 l 1,33,-1
 1152 -244 l 1,34,-1
 1152 -244 l 1,13,-1
EndSplineSet
EndChar

StartChar: Sacute
Encoding: 346 346 91
Width: 2559
Flags: W
LayerCount: 3
Fore
SplineSet
827 1648 m 5,0,1
 827 1648 827 1648 912 1731 c 5,2,-1
 1637 1731 l 5,3,-1
 1726 1653 l 21,4,5
 1726 1653 1726 1653 1637 1567 c 5,6,-1
 912 1567 l 5,7,-1
 827 1648 l 5,0,1
512 262 m 1025,8,-1
512 6 m 1,9,-1
 256 134 l 1,10,11
 255 133 255 133 512 262 c 1,12,-1
 1152 262 l 1,13,-1
 1152 1242 l 1,14,-1
 1280 1498 l 1,15,-1
 1408 1242 l 1,16,17
 1408 1241 1408 1241 1408 262 c 1,18,-1
 2048 262 l 1,19,-1
 2304 134 l 1,20,-1
 2048 6 l 1,21,-1
 512 6 l 1,9,-1
EndSplineSet
EndChar

StartChar: Scircumflex
Encoding: 348 348 92
Width: 2559
Flags: W
LayerCount: 3
Fore
SplineSet
827 1648 m 5,0,1
 827 1648 827 1648 912 1731 c 5,2,-1
 1637 1731 l 5,3,-1
 1726 1653 l 21,4,5
 1726 1653 1726 1653 1637 1567 c 5,6,-1
 912 1567 l 5,7,-1
 827 1648 l 5,0,1
512 6 m 1,8,-1
 256 134 l 1,9,10
 255 133 255 133 512 262 c 1,11,-1
 1152 262 l 1,12,-1
 1152 774 l 1,13,-1
 256 774 l 1,14,15
 255 774 255 774 512 902 c 1,16,-1
 1024 902 l 1,17,-1
 1152 1030 l 1,18,-1
 1152 1242 l 1,19,-1
 1280 1498 l 1,20,-1
 1408 1242 l 1,21,-1
 1408 1030 l 1,22,-1
 2304 1030 l 1,23,-1
 2048 902 l 1,24,-1
 1536 902 l 1,25,-1
 1408 774 l 1,26,27
 1408 773 1408 773 1408 262 c 1,28,-1
 2048 262 l 1,29,-1
 2304 134 l 1,30,-1
 2048 6 l 1,31,-1
 512 6 l 1,8,-1
EndSplineSet
EndChar

StartChar: percent
Encoding: 37 37 93
Width: 2107
Flags: W
LayerCount: 3
Fore
SplineSet
885 1280 m 17,0,-1
 373 256 l 1,1,-1
 373 128 l 2,2,3
 373 75 373 75 335 37 c 0,4,5
 297 0 297 0 245 0 c 1,6,7
 245 0 245 0 245 0 c 1,8,9
 192 0 192 0 154 37 c 0,10,11
 117 75 117 75 117 128 c 2,12,13
 117 128 117 128 117 256 c 1,14,-1
 629 1280 l 1,15,-1
 885 1792 l 1,16,-1
 885 1920 l 2,17,18
 885 1972 885 1972 922 2010 c 0,19,20
 960 2048 960 2048 1013 2048 c 0,21,22
 1065 2048 1065 2048 1103 2010 c 256,23,24
 1141 1972 1141 1972 1141 1920 c 2,25,26
 1141 1920 1141 1920 1141 1792 c 9,27,-1
 885 1280 l 17,0,-1
1082 149 m 1,28,-1
 967 207 l 1,29,-1
 1082 264 l 1,30,-1
 1371 264 l 1,31,-1
 1371 494 l 1,32,-1
 967 494 l 1,33,-1
 1082 552 l 1,34,-1
 1313 552 l 1,35,-1
 1371 610 l 1,36,-1
 1371 840 l 1,37,-1
 1082 840 l 1,38,-1
 967 897 l 1,39,-1
 1082 955 l 1,40,-1
 1774 955 l 1,41,-1
 1889 897 l 1,42,-1
 1774 840 l 1,43,-1
 1486 840 l 1,44,-1
 1486 610 l 1,45,-1
 1889 610 l 1,46,-1
 1774 552 l 1,47,-1
 1543 552 l 1,48,-1
 1486 494 l 1,49,-1
 1486 264 l 1,50,-1
 1774 264 l 1,51,-1
 1889 207 l 1,52,-1
 1774 149 l 1,53,-1
 1082 149 l 1,28,-1
EndSplineSet
EndChar

StartChar: numbersign
Encoding: 35 35 94
Width: 1066
Flags: W
LayerCount: 3
Fore
SplineSet
1016 1322 m 5,0,-1
 821 1322 l 5,1,-1
 737 843 l 5,2,-1
 944 843 l 5,3,-1
 944 728 l 5,4,-1
 717 728 l 5,5,-1
 641 300 l 5,6,-1
 514 300 l 5,7,-1
 592 728 l 5,8,-1
 350 728 l 5,9,-1
 276 300 l 5,10,-1
 150 300 l 5,11,-1
 225 728 l 5,12,-1
 51 728 l 5,13,-1
 51 843 l 5,14,-1
 246 843 l 5,15,-1
 330 1322 l 5,16,-1
 123 1322 l 5,17,-1
 123 1437 l 5,18,-1
 350 1437 l 5,19,-1
 426 1865 l 5,20,-1
 553 1865 l 5,21,-1
 475 1437 l 5,22,-1
 717 1437 l 5,23,-1
 791 1865 l 5,24,-1
 918 1865 l 5,25,-1
 842 1437 l 5,26,-1
 1016 1437 l 5,27,-1
 1016 1322 l 5,0,-1
696 1322 m 5,28,-1
 455 1322 l 5,29,-1
 371 843 l 5,30,-1
 610 843 l 5,31,-1
 696 1322 l 5,28,-1
EndSplineSet
EndChar

StartChar: logicalnot
Encoding: 172 172 95
Width: 539
VWidth: 999
Flags: W
LayerCount: 3
Fore
SplineSet
388 1075 m 5,0,-1
 388 1232 l 5,1,-1
 70 1232 l 5,2,-1
 70 1308 l 5,3,-1
 470 1308 l 5,4,-1
 470 1075 l 5,5,-1
 388 1075 l 5,0,-1
EndSplineSet
EndChar

StartChar: Ccircumflex
Encoding: 264 264 96
Width: 2559
Flags: W
LayerCount: 3
Fore
SplineSet
512 6 m 1,0,-1
 256 134 l 1,1,2
 255 133 255 133 512 262 c 1,3,-1
 1152 262 l 1,4,-1
 1152 774 l 1,5,-1
 256 774 l 1,6,7
 255 774 255 774 512 902 c 1,8,-1
 1024 902 l 1,9,-1
 1152 1030 l 1,10,-1
 1152 1542 l 1,11,12
 1151 1542 1151 1542 512 1542 c 1,13,-1
 256 1670 l 1,14,15
 255 1670 255 1670 512 1798 c 1,16,-1
 2048 1798 l 1,17,-1
 2304 1670 l 1,18,-1
 2048 1542 l 1,19,-1
 1408 1542 l 1,20,-1
 1408 1030 l 1,21,-1
 2304 1030 l 1,22,-1
 2048 902 l 1,23,-1
 1536 902 l 1,24,-1
 1408 774 l 1,25,26
 1408 773 1408 773 1408 262 c 1,27,-1
 2048 262 l 1,28,-1
 2304 134 l 1,29,-1
 2048 6 l 1,30,-1
 512 6 l 1,0,-1
EndSplineSet
EndChar

StartChar: Uogonek
Encoding: 370 370 97
Width: 2559
Flags: W
LayerCount: 3
Fore
SplineSet
2176 6 m 1,0,1
 2176 5 2176 5 2048 262 c 1,2,-1
 2048 1542 l 1,3,-1
 768 1542 l 1,4,5
 768 1543 768 1543 640 1286 c 1,6,-1
 768 1030 l 1,7,-1
 1024 1286 l 1,8,-1
 1024 902 l 1,9,-1
 1280 774 l 1,10,-1
 1536 1030 l 1,11,-1
 1536 646 l 1,12,-1
 1664 518 l 1,13,-1
 1792 262 l 1,14,-1
 768 774 l 1,15,-1
 512 1030 l 1,16,-1
 384 1286 l 1,17,18
 383 1286 383 1286 512 1542 c 1,19,-1
 768 1798 l 1,20,-1
 2048 1798 l 1,21,-1
 2304 1542 l 1,22,23
 2304 1541 2304 1541 2304 262 c 1,24,-1
 2176 6 l 1,25,-1
 2176 6 l 1,0,1
EndSplineSet
EndChar

StartChar: Uhungarumlaut
Encoding: 368 368 98
Width: 2559
Flags: W
LayerCount: 3
Fore
SplineSet
2176 6 m 1,0,1
 2176 5 2176 5 2048 262 c 1,2,-1
 2048 1542 l 1,3,-1
 768 1542 l 1,4,5
 768 1543 768 1543 640 1286 c 1,6,-1
 768 1030 l 1,7,-1
 1536 646 l 1,8,-1
 1664 518 l 1,9,-1
 1792 262 l 1,10,11
 1793 262 1793 262 1536 390 c 1,12,-1
 1280 134 l 1,13,-1
 1280 518 l 1,14,-1
 1024 646 l 1,15,-1
 768 390 l 1,16,-1
 768 774 l 1,17,-1
 512 1030 l 1,18,-1
 384 1286 l 1,19,20
 383 1286 383 1286 512 1542 c 1,21,-1
 768 1798 l 1,22,-1
 2048 1798 l 1,23,-1
 2304 1542 l 1,24,25
 2304 1541 2304 1541 2304 262 c 1,26,-1
 2176 6 l 1,27,-1
 2176 6 l 1,0,1
EndSplineSet
EndChar

StartChar: Ubreve
Encoding: 364 364 99
Width: 2559
Flags: W
LayerCount: 3
Fore
SplineSet
768 6 m 1,0,1
 768 5 768 5 512 262 c 1,2,-1
 384 518 l 1,3,4
 383 518 383 518 512 774 c 1,5,-1
 768 1030 l 1,6,-1
 768 1414 l 1,7,-1
 1024 1158 l 1,8,-1
 1280 1286 l 1,9,-1
 1280 1670 l 1,10,-1
 1536 1414 l 1,11,-1
 1792 1542 l 1,12,13
 1792 1543 1792 1543 1664 1286 c 1,14,15
 1665 1286 1665 1286 1536 1158 c 1,16,-1
 768 774 l 1,17,-1
 640 518 l 1,18,-1
 768 262 l 1,19,-1
 2048 262 l 1,20,-1
 2304 134 l 1,21,-1
 2048 6 l 1,22,-1
 768 6 l 1,0,1
EndSplineSet
EndChar

StartChar: Uring
Encoding: 366 366 100
Width: 2559
Flags: W
LayerCount: 3
Fore
SplineSet
768 6 m 1,0,1
 768 5 768 5 512 262 c 1,2,-1
 384 518 l 1,3,4
 383 518 383 518 512 774 c 1,5,-1
 768 1030 l 1,6,-1
 1792 1542 l 1,7,8
 1792 1543 1792 1543 1664 1286 c 1,9,10
 1665 1286 1665 1286 1536 1158 c 1,11,-1
 1536 774 l 1,12,-1
 1280 1030 l 1,13,-1
 1024 902 l 1,14,-1
 1024 518 l 1,15,-1
 768 774 l 1,16,-1
 640 518 l 1,17,-1
 768 262 l 1,18,-1
 2048 262 l 1,19,-1
 2304 134 l 1,20,-1
 2048 6 l 1,21,-1
 768 6 l 1,0,1
EndSplineSet
EndChar

StartChar: uni0136
Encoding: 310 310 101
Width: 2559
Flags: W
LayerCount: 3
Fore
SplineSet
512 6 m 1,0,1
 512 5 512 5 256 262 c 1,2,3
 255 262 255 262 512 518 c 1,4,-1
 768 646 l 1,5,-1
 768 1030 l 1,6,-1
 1024 774 l 1,7,-1
 1280 902 l 1,8,9
 1280 903 1280 903 1280 1286 c 1,10,-1
 1536 1030 l 1,11,-1
 1920 1222 l 1,12,-1
 1280 1542 l 1,13,-1
 256 1542 l 1,14,15
 255 1542 255 1542 512 1798 c 1,16,-1
 1280 1798 l 1,17,-1
 2048 1414 l 1,18,19
 2048 1415 2048 1415 2176 1286 c 1,20,-1
 2176 1158 l 1,21,-1
 2048 1030 l 1,22,-1
 512 262 l 1,23,-1
 2048 262 l 1,24,-1
 2304 134 l 1,25,-1
 2048 6 l 1,26,-1
 512 6 l 1,0,1
EndSplineSet
EndChar

StartChar: uni0137
Encoding: 311 311 102
Width: 2559
Flags: W
LayerCount: 3
Fore
SplineSet
512 6 m 1,0,1
 512 5 512 5 256 262 c 1,2,3
 255 262 255 262 512 518 c 1,4,-1
 1920 1222 l 1,5,-1
 1280 1542 l 1,6,-1
 256 1542 l 1,7,8
 255 1542 255 1542 512 1798 c 1,9,-1
 1280 1798 l 1,10,-1
 2048 1414 l 1,11,12
 2048 1415 2048 1415 2176 1286 c 1,13,-1
 2176 1158 l 1,14,-1
 2048 1030 l 1,15,-1
 2048 646 l 1,16,-1
 1792 902 l 1,17,18
 1793 902 1793 902 1536 774 c 1,19,-1
 1536 390 l 1,20,-1
 1280 646 l 1,21,22
 1280 645 1280 645 512 262 c 1,23,-1
 2048 262 l 1,24,-1
 2304 134 l 1,25,-1
 2048 6 l 1,26,-1
 512 6 l 1,0,1
EndSplineSet
EndChar

StartChar: Gcircumflex
Encoding: 284 284 103
Width: 2559
Flags: W
LayerCount: 3
Fore
SplineSet
512 6 m 1,0,-1
 256 134 l 1,1,2
 255 133 255 133 512 262 c 1,3,-1
 2048 262 l 1,4,-1
 512 1030 l 1,5,-1
 384 1158 l 1,6,-1
 384 1286 l 1,7,8
 383 1286 383 1286 512 1414 c 1,9,-1
 1280 1798 l 1,10,-1
 2048 1798 l 1,11,-1
 2304 1542 l 1,12,-1
 1280 1542 l 1,13,-1
 640 1222 l 1,14,-1
 1024 1030 l 1,15,-1
 1280 1286 l 1,16,-1
 1280 902 l 1,17,-1
 1536 774 l 1,18,-1
 1792 1030 l 1,19,-1
 1792 646 l 1,20,-1
 2048 518 l 1,21,-1
 2304 262 l 1,22,-1
 2048 6 l 1,23,-1
 512 6 l 1,0,-1
EndSplineSet
EndChar

StartChar: Gbreve
Encoding: 286 286 104
Width: 2559
Flags: W
LayerCount: 3
Fore
SplineSet
512 6 m 1,0,-1
 256 134 l 1,1,2
 255 133 255 133 512 262 c 1,3,-1
 2048 262 l 1,4,-1
 1280 646 l 1,5,-1
 1024 390 l 1,6,-1
 1024 774 l 1,7,-1
 768 902 l 1,8,-1
 512 646 l 1,9,-1
 512 1030 l 1,10,-1
 384 1158 l 1,11,-1
 384 1286 l 1,12,13
 383 1286 383 1286 512 1414 c 1,14,-1
 1280 1798 l 1,15,-1
 2048 1798 l 1,16,-1
 2304 1542 l 1,17,-1
 1280 1542 l 1,18,-1
 640 1222 l 1,19,-1
 2048 518 l 1,20,-1
 2304 262 l 1,21,-1
 2048 6 l 1,22,-1
 512 6 l 1,0,-1
EndSplineSet
EndChar

StartChar: Rcaron
Encoding: 344 344 105
Width: 2559
Flags: W
LayerCount: 3
Fore
SplineSet
1280 1030 m 1,0,-1
 1408 1286 l 1,1,-1
 1536 1414 l 1,2,-1
 1536 1542 l 1,3,-1
 1024 1542 l 1,4,-1
 1024 1030 l 1,5,-1
 1280 1030 l 1,0,-1
896 6 m 1,6,7
 896 5 896 5 768 262 c 1,8,-1
 768 1542 l 1,9,-1
 512 1542 l 1,10,-1
 256 1670 l 1,11,12
 255 1670 255 1670 512 1798 c 1,13,-1
 2048 1798 l 1,14,-1
 2304 1670 l 1,15,-1
 2048 1542 l 1,16,-1
 1792 1542 l 1,17,18
 1792 1543 1792 1543 1792 1286 c 1,19,20
 1793 1286 1793 1286 1536 1030 c 1,21,-1
 1534 1030 l 1,22,-1
 1408 902 l 1,23,-1
 1792 518 l 1,24,-1
 2304 262 l 1,25,-1
 2048 134 l 1,26,-1
 1536 390 l 1,27,-1
 1408 518 l 1,28,-1
 1280 774 l 1,29,-1
 1024 774 l 1,30,31
 1024 773 1024 773 1024 262 c 1,32,-1
 896 6 l 1,33,-1
 896 6 l 1,6,7
EndSplineSet
EndChar

StartChar: parenleft
Encoding: 40 40 106
Width: 874
Flags: W
LayerCount: 3
Fore
SplineSet
830 51 m 5,0,-1
 214 805 l 5,1,-1
 81 805 l 5,2,-1
 81 797 l 5,3,-1
 697 42 l 5,4,-1
 830 42 l 5,5,-1
 830 51 l 5,0,-1
830 1556 m 5,6,-1
 214 802 l 5,7,-1
 81 802 l 5,8,-1
 81 810 l 5,9,-1
 697 1565 l 5,10,-1
 830 1565 l 5,11,-1
 830 1556 l 5,6,-1
EndSplineSet
EndChar

StartChar: parenright
Encoding: 41 41 107
Width: 884
Flags: W
LayerCount: 3
Fore
SplineSet
91 51 m 5,0,-1
 707 805 l 5,1,-1
 840 805 l 5,2,-1
 840 797 l 5,3,-1
 224 42 l 5,4,-1
 91 42 l 5,5,-1
 91 51 l 5,0,-1
91 1556 m 5,6,-1
 707 802 l 5,7,-1
 840 802 l 5,8,-1
 840 810 l 5,9,-1
 224 1565 l 5,10,-1
 91 1565 l 5,11,-1
 91 1556 l 5,6,-1
EndSplineSet
EndChar

StartChar: less
Encoding: 60 60 108
Width: 703
Flags: W
LayerCount: 3
Fore
SplineSet
466 604 m 5,0,-1
 402 732 l 5,1,-1
 466 860 l 5,2,-1
 530 732 l 5,3,-1
 466 604 l 5,4,-1
 466 604 l 5,0,-1
473 -151 m 1,5,-1
 352 -151 l 1,6,7
 104 252 104 252 104 732 c 256,8,9
 104 1212 104 1212 352 1615 c 1,10,-1
 473 1615 l 1,11,-1
 473 1604 l 1,12,13
 351 1383 351 1383 298 1184 c 0,14,15
 244 980 244 980 244 732 c 256,16,17
 244 484 244 484 298 280 c 0,18,19
 351 81 351 81 473 -140 c 1,20,-1
 473 -151 l 1,5,-1
EndSplineSet
EndChar

StartChar: greater
Encoding: 62 62 109
Width: 703
Flags: W
LayerCount: 3
Fore
SplineSet
168 604 m 5,0,-1
 232 732 l 5,1,-1
 168 860 l 5,2,-1
 104 732 l 5,3,-1
 168 604 l 5,4,-1
 168 604 l 5,0,-1
161 -151 m 1,5,-1
 282 -151 l 1,6,7
 530 252 530 252 530 732 c 256,8,9
 530 1212 530 1212 282 1615 c 1,10,-1
 161 1615 l 1,11,-1
 161 1604 l 1,12,13
 283 1383 283 1383 336 1184 c 0,14,15
 390 980 390 980 390 732 c 256,16,17
 390 484 390 484 336 280 c 0,18,19
 283 81 283 81 161 -140 c 1,20,-1
 161 -151 l 1,5,-1
EndSplineSet
EndChar

StartChar: Ccaron
Encoding: 268 268 110
Width: 2559
Flags: W
LayerCount: 3
Fore
SplineSet
827 -133 m 5,0,1
 827 -133 827 -133 911 -50 c 5,2,-1
 1637 -50 l 5,3,-1
 1726 -128 l 21,4,5
 1726 -128 1726 -128 1637 -214 c 5,6,-1
 911 -214 l 5,7,-1
 827 -133 l 5,0,1
512 6 m 1,8,-1
 256 134 l 1,9,10
 255 133 255 133 512 262 c 1,11,-1
 1152 262 l 1,12,-1
 1152 774 l 1,13,-1
 256 774 l 1,14,15
 255 774 255 774 512 902 c 1,16,-1
 1024 902 l 1,17,-1
 1152 1030 l 1,18,-1
 1152 1542 l 1,19,20
 1151 1542 1151 1542 512 1542 c 1,21,-1
 256 1670 l 1,22,23
 255 1670 255 1670 512 1798 c 1,24,-1
 2048 1798 l 1,25,-1
 2304 1670 l 1,26,-1
 2048 1542 l 1,27,-1
 1408 1542 l 1,28,-1
 1408 1030 l 1,29,-1
 2304 1030 l 1,30,-1
 2048 902 l 1,31,-1
 1536 902 l 1,32,-1
 1408 774 l 1,33,34
 1408 773 1408 773 1408 262 c 1,35,-1
 2048 262 l 1,36,-1
 2304 134 l 1,37,-1
 2048 6 l 1,38,-1
 512 6 l 1,8,-1
EndSplineSet
EndChar

StartChar: uni1E02
Encoding: 7682 7682 111
Width: 2560
Flags: W
LayerCount: 3
Fore
SplineSet
384 6 m 1,0,-1
 256 262 l 1,1,-1
 256 1542 l 1,2,-1
 512 1798 l 1,3,-1
 768 1670 l 1,4,-1
 512 1542 l 1,5,-1
 512 1030 l 1,6,-1
 1024 774 l 1,7,-1
 1280 1030 l 1,8,-1
 1280 646 l 1,9,-1
 1536 518 l 1,10,-1
 1792 774 l 1,11,-1
 1792 390 l 1,12,-1
 1920 262 l 1,13,-1
 2048 6 l 1,14,-1
 512 774 l 1,15,-1
 512 262 l 1,16,-1
 384 6 l 1,17,-1
 384 6 l 1,0,-1
EndSplineSet
EndChar

StartChar: uni1E04
Encoding: 7684 7684 112
Width: 2560
Flags: W
LayerCount: 3
Fore
SplineSet
384 6 m 1,0,-1
 256 262 l 1,1,-1
 256 1542 l 1,2,-1
 512 1798 l 1,3,-1
 768 1670 l 1,4,-1
 512 1542 l 1,5,-1
 512 1030 l 1,6,-1
 1792 390 l 1,7,-1
 1920 262 l 1,8,-1
 2048 6 l 1,9,-1
 1536 262 l 1,10,-1
 1280 6 l 1,11,-1
 1280 390 l 1,12,-1
 1024 518 l 1,13,-1
 768 262 l 1,14,-1
 768 646 l 1,15,-1
 512 774 l 1,16,-1
 512 262 l 1,17,-1
 384 6 l 1,18,-1
 384 6 l 1,0,-1
EndSplineSet
EndChar

StartChar: uni1E08
Encoding: 7688 7688 113
Width: 2559
Flags: W
LayerCount: 3
Fore
SplineSet
827 -133 m 5,0,1
 827 -133 827 -133 911 -50 c 5,2,-1
 1637 -50 l 5,3,-1
 1726 -128 l 21,4,5
 1726 -128 1726 -128 1637 -214 c 5,6,-1
 911 -214 l 5,7,-1
 827 -133 l 5,0,1
512 6 m 1,8,-1
 256 134 l 1,9,10
 255 133 255 133 512 262 c 1,11,-1
 1152 262 l 1,12,-1
 1152 774 l 1,13,-1
 256 774 l 1,14,15
 255 774 255 774 512 902 c 1,16,-1
 1024 902 l 1,17,-1
 1152 1030 l 1,18,-1
 1152 1542 l 1,19,20
 1151 1542 1151 1542 512 1542 c 1,21,-1
 256 1670 l 1,22,23
 255 1670 255 1670 512 1798 c 1,24,-1
 2048 1798 l 1,25,-1
 2304 1670 l 1,26,-1
 2048 1542 l 1,27,-1
 1408 1542 l 1,28,-1
 1408 1030 l 1,29,-1
 2304 1030 l 1,30,-1
 2048 902 l 1,31,-1
 1536 902 l 1,32,-1
 1408 774 l 1,33,34
 1408 773 1408 773 1408 262 c 1,35,-1
 2048 262 l 1,36,-1
 2304 134 l 1,37,-1
 2048 6 l 1,38,-1
 512 6 l 1,8,-1
EndSplineSet
EndChar

StartChar: uni1E0A
Encoding: 7690 7690 114
Width: 2560
Flags: W
LayerCount: 3
Fore
SplineSet
768 6 m 1,0,-1
 512 262 l 1,1,-1
 384 518 l 1,2,-1
 512 774 l 1,3,-1
 768 1030 l 1,4,-1
 768 1414 l 1,5,-1
 1024 1158 l 1,6,-1
 1280 1286 l 1,7,-1
 1280 1670 l 1,8,-1
 1536 1414 l 1,9,-1
 1792 1542 l 1,10,-1
 1664 1286 l 1,11,-1
 1536 1158 l 1,12,-1
 768 774 l 1,13,-1
 640 518 l 1,14,-1
 768 262 l 1,15,-1
 2048 262 l 1,16,-1
 2048 1542 l 1,17,-1
 2176 1798 l 1,18,-1
 2304 1542 l 1,19,-1
 2304 262 l 1,20,-1
 2048 6 l 1,21,-1
 768 6 l 1,0,-1
EndSplineSet
EndChar

StartChar: uni1E0C
Encoding: 7692 7692 115
Width: 2560
Flags: W
LayerCount: 3
Fore
SplineSet
768 6 m 1,0,-1
 512 262 l 1,1,-1
 384 518 l 1,2,-1
 512 774 l 1,3,-1
 768 1030 l 1,4,-1
 1792 1542 l 1,5,-1
 1664 1286 l 1,6,-1
 1536 1158 l 1,7,-1
 1536 774 l 1,8,-1
 1280 1030 l 1,9,-1
 1024 902 l 1,10,-1
 1024 518 l 1,11,-1
 768 774 l 1,12,-1
 640 518 l 1,13,-1
 768 262 l 1,14,-1
 2048 262 l 1,15,-1
 2048 1542 l 1,16,-1
 2176 1798 l 1,17,-1
 2304 1542 l 1,18,-1
 2304 262 l 1,19,-1
 2048 6 l 1,20,-1
 768 6 l 1,0,-1
EndSplineSet
EndChar

StartChar: uni1E1E
Encoding: 7710 7710 116
Width: 2560
Flags: W
LayerCount: 3
Fore
SplineSet
2304 6 m 1,0,-1
 768 774 l 1,1,-1
 512 1030 l 1,2,-1
 384 1286 l 1,3,-1
 512 1542 l 1,4,-1
 768 1798 l 1,5,-1
 1024 1798 l 1,6,-1
 1536 1542 l 1,7,-1
 768 1542 l 1,8,-1
 640 1286 l 1,9,-1
 768 1030 l 1,10,-1
 1024 1286 l 1,11,-1
 1024 902 l 1,12,-1
 1280 774 l 1,13,-1
 1536 1030 l 1,14,-1
 1536 646 l 1,15,-1
 2048 390 l 1,16,-1
 2176 262 l 1,17,-1
 2304 6 l 1,18,-1
 2304 6 l 1,0,-1
EndSplineSet
EndChar

StartChar: uni1E1F
Encoding: 7711 7711 117
Width: 2560
Flags: W
LayerCount: 3
Fore
SplineSet
2304 6 m 1,0,-1
 1536 390 l 1,1,-1
 1280 134 l 1,2,-1
 1280 518 l 1,3,-1
 1024 646 l 1,4,-1
 768 390 l 1,5,-1
 768 774 l 1,6,-1
 512 1030 l 1,7,-1
 384 1286 l 1,8,-1
 512 1542 l 1,9,-1
 768 1798 l 1,10,-1
 1024 1798 l 1,11,-1
 1536 1542 l 1,12,-1
 768 1542 l 1,13,-1
 640 1286 l 1,14,-1
 768 1030 l 1,15,-1
 2048 390 l 1,16,-1
 2176 262 l 1,17,-1
 2304 6 l 1,18,-1
 2304 6 l 1,0,-1
EndSplineSet
EndChar

StartChar: uni1E30
Encoding: 7728 7728 118
Width: 2560
Flags: W
LayerCount: 3
Fore
SplineSet
512 6 m 1,0,-1
 256 262 l 1,1,-1
 512 518 l 1,2,-1
 768 646 l 1,3,-1
 768 1030 l 1,4,-1
 1024 774 l 1,5,-1
 1280 902 l 1,6,-1
 1280 1286 l 1,7,-1
 1536 1030 l 1,8,-1
 1920 1222 l 1,9,-1
 1280 1542 l 1,10,-1
 256 1542 l 1,11,-1
 512 1798 l 1,12,-1
 1280 1798 l 1,13,-1
 2048 1414 l 1,14,-1
 2176 1286 l 1,15,-1
 2176 1158 l 1,16,-1
 2048 1030 l 1,17,-1
 512 262 l 1,18,-1
 2048 262 l 1,19,-1
 2304 134 l 1,20,-1
 2048 6 l 1,21,-1
 512 6 l 1,0,-1
EndSplineSet
EndChar

StartChar: uni1E32
Encoding: 7730 7730 119
Width: 2560
Flags: W
LayerCount: 3
Fore
SplineSet
512 6 m 1,0,-1
 256 262 l 1,1,-1
 512 518 l 1,2,-1
 1920 1222 l 1,3,-1
 1280 1542 l 1,4,-1
 256 1542 l 1,5,-1
 512 1798 l 1,6,-1
 1280 1798 l 1,7,-1
 2048 1414 l 1,8,-1
 2176 1286 l 1,9,-1
 2176 1158 l 1,10,-1
 2048 1030 l 1,11,-1
 2048 646 l 1,12,-1
 1792 902 l 1,13,-1
 1536 774 l 1,14,-1
 1536 390 l 1,15,-1
 1280 646 l 1,16,-1
 512 262 l 1,17,-1
 2048 262 l 1,18,-1
 2304 134 l 1,19,-1
 2048 6 l 1,20,-1
 512 6 l 1,0,-1
EndSplineSet
EndChar

StartChar: uni1E54
Encoding: 7764 7764 120
Width: 2560
Flags: W
LayerCount: 3
Fore
SplineSet
384 6 m 1,0,-1
 256 262 l 1,1,-1
 256 1542 l 1,2,-1
 512 1798 l 1,3,-1
 2048 1798 l 1,4,-1
 2304 1542 l 1,5,-1
 2176 1286 l 1,6,-1
 2048 1542 l 1,7,-1
 512 1542 l 1,8,-1
 512 1030 l 1,9,-1
 1792 390 l 1,10,-1
 1920 262 l 1,11,-1
 2048 6 l 1,12,-1
 1536 262 l 1,13,-1
 1280 6 l 1,14,-1
 1280 390 l 1,15,-1
 1024 518 l 1,16,-1
 768 262 l 1,17,-1
 768 646 l 1,18,-1
 512 774 l 1,19,-1
 512 262 l 1,20,-1
 384 6 l 1,21,-1
 384 6 l 1,0,-1
EndSplineSet
EndChar

StartChar: uni1E56
Encoding: 7766 7766 121
Width: 2560
Flags: W
LayerCount: 3
Fore
SplineSet
384 6 m 1,0,-1
 256 262 l 1,1,-1
 256 1542 l 1,2,-1
 512 1798 l 1,3,-1
 2048 1798 l 1,4,-1
 2304 1542 l 1,5,-1
 2176 1286 l 1,6,-1
 2048 1542 l 1,7,-1
 512 1542 l 1,8,-1
 512 1030 l 1,9,-1
 1024 774 l 1,10,-1
 1280 1030 l 1,11,-1
 1280 646 l 1,12,-1
 1536 518 l 1,13,-1
 1792 774 l 1,14,-1
 1792 390 l 1,15,-1
 1920 262 l 1,16,-1
 2048 6 l 1,17,-1
 512 774 l 1,18,-1
 512 262 l 1,19,-1
 384 6 l 1,20,-1
 384 6 l 1,0,-1
EndSplineSet
EndChar

StartChar: uni1E7C
Encoding: 7804 7804 122
Width: 2560
Flags: W
LayerCount: 3
Fore
SplineSet
2176 6 m 1,0,-1
 2048 262 l 1,1,-1
 2048 1542 l 1,2,-1
 768 1542 l 1,3,-1
 640 1286 l 1,4,-1
 768 1030 l 1,5,-1
 1536 646 l 1,6,-1
 1664 518 l 1,7,-1
 1792 262 l 1,8,-1
 1536 390 l 1,9,-1
 1280 134 l 1,10,-1
 1280 518 l 1,11,-1
 1024 646 l 1,12,-1
 768 390 l 1,13,-1
 768 774 l 1,14,-1
 512 1030 l 1,15,-1
 384 1286 l 1,16,-1
 512 1542 l 1,17,-1
 768 1798 l 1,18,-1
 2048 1798 l 1,19,-1
 2304 1542 l 1,20,-1
 2304 262 l 1,21,-1
 2176 6 l 1,22,-1
 2176 6 l 1,0,-1
EndSplineSet
EndChar

StartChar: uni1E7E
Encoding: 7806 7806 123
Width: 2560
Flags: W
LayerCount: 3
Fore
SplineSet
2176 6 m 1,0,-1
 2048 262 l 1,1,-1
 2048 1542 l 1,2,-1
 768 1542 l 1,3,-1
 640 1286 l 1,4,-1
 768 1030 l 1,5,-1
 1024 1286 l 1,6,-1
 1024 902 l 1,7,-1
 1280 774 l 1,8,-1
 1536 1030 l 1,9,-1
 1536 646 l 1,10,-1
 1664 518 l 1,11,-1
 1792 262 l 1,12,-1
 768 774 l 1,13,-1
 512 1030 l 1,14,-1
 384 1286 l 1,15,-1
 512 1542 l 1,16,-1
 768 1798 l 1,17,-1
 2048 1798 l 1,18,-1
 2304 1542 l 1,19,-1
 2304 262 l 1,20,-1
 2176 6 l 1,21,-1
 2176 6 l 1,0,-1
EndSplineSet
EndChar

StartChar: uni1E6A
Encoding: 7786 7786 124
Width: 2560
Flags: W
LayerCount: 3
Fore
SplineSet
768 6 m 1,0,-1
 512 262 l 1,1,-1
 384 518 l 1,2,-1
 512 774 l 1,3,-1
 768 1030 l 1,4,-1
 768 1414 l 1,5,-1
 1024 1158 l 1,6,-1
 1280 1286 l 1,7,-1
 1280 1670 l 1,8,-1
 1536 1414 l 1,9,-1
 1792 1542 l 1,10,-1
 1664 1286 l 1,11,-1
 1536 1158 l 1,12,-1
 768 774 l 1,13,-1
 640 518 l 1,14,-1
 768 262 l 1,15,-1
 2048 262 l 1,16,-1
 2304 134 l 1,17,-1
 2048 6 l 1,18,-1
 768 6 l 1,0,-1
EndSplineSet
EndChar

StartChar: uni1E6C
Encoding: 7788 7788 125
Width: 2560
Flags: W
LayerCount: 3
Fore
SplineSet
768 6 m 1,0,-1
 512 262 l 1,1,-1
 384 518 l 1,2,-1
 512 774 l 1,3,-1
 768 1030 l 1,4,-1
 1792 1542 l 1,5,-1
 1664 1286 l 1,6,-1
 1536 1158 l 1,7,-1
 1536 774 l 1,8,-1
 1280 1030 l 1,9,-1
 1024 902 l 1,10,-1
 1024 518 l 1,11,-1
 768 774 l 1,12,-1
 640 518 l 1,13,-1
 768 262 l 1,14,-1
 2048 262 l 1,15,-1
 2304 134 l 1,16,-1
 2048 6 l 1,17,-1
 768 6 l 1,0,-1
EndSplineSet
EndChar

StartChar: uni1E6E
Encoding: 7790 7790 126
Width: 2560
Flags: W
LayerCount: 3
Fore
SplineSet
768 6 m 1,0,-1
 512 262 l 1,1,-1
 384 518 l 1,2,-1
 512 774 l 1,3,-1
 768 1030 l 1,4,-1
 1024 1158 l 1,5,-1
 1024 1542 l 1,6,-1
 1152 1798 l 1,7,-1
 1280 1542 l 1,8,-1
 1280 1286 l 1,9,-1
 1792 1542 l 1,10,-1
 1664 1286 l 1,11,-1
 1536 1158 l 1,12,-1
 768 774 l 1,13,-1
 640 518 l 1,14,-1
 768 262 l 1,15,-1
 2048 262 l 1,16,-1
 2304 134 l 1,17,-1
 2048 6 l 1,18,-1
 768 6 l 1,0,-1
EndSplineSet
EndChar

StartChar: uni1EDC
Encoding: 7900 7900 127
Width: 2560
Flags: W
LayerCount: 3
Fore
SplineSet
512 6 m 1,0,-1
 256 134 l 1,1,-1
 512 262 l 1,2,-1
 2048 262 l 1,3,-1
 512 1030 l 1,4,-1
 384 1158 l 1,5,-1
 384 1286 l 1,6,-1
 512 1414 l 1,7,-1
 1280 1798 l 1,8,-1
 2048 1798 l 1,9,-1
 2304 1542 l 1,10,-1
 1280 1542 l 1,11,-1
 640 1222 l 1,12,-1
 1024 1030 l 1,13,-1
 1280 1286 l 1,14,-1
 1280 902 l 1,15,-1
 1536 774 l 1,16,-1
 1792 1030 l 1,17,-1
 1792 646 l 1,18,-1
 2048 518 l 1,19,-1
 2304 262 l 1,20,-1
 2048 6 l 1,21,-1
 512 6 l 1,0,-1
EndSplineSet
EndChar

StartChar: uni1EE2
Encoding: 7906 7906 128
Width: 2560
Flags: W
LayerCount: 3
Fore
SplineSet
512 6 m 1,0,-1
 256 134 l 1,1,-1
 512 262 l 1,2,-1
 2048 262 l 1,3,-1
 1280 646 l 1,4,-1
 1024 390 l 1,5,-1
 1024 774 l 1,6,-1
 768 902 l 1,7,-1
 512 646 l 1,8,-1
 512 1030 l 1,9,-1
 384 1158 l 1,10,-1
 384 1286 l 1,11,-1
 512 1414 l 1,12,-1
 1280 1798 l 1,13,-1
 2048 1798 l 1,14,-1
 2304 1542 l 1,15,-1
 1280 1542 l 1,16,-1
 640 1222 l 1,17,-1
 2048 518 l 1,18,-1
 2304 262 l 1,19,-1
 2048 6 l 1,20,-1
 512 6 l 1,0,-1
EndSplineSet
EndChar

StartChar: uni1E60
Encoding: 7776 7776 129
Width: 2559
Flags: W
LayerCount: 3
Fore
SplineSet
827 1648 m 5,0,1
 827 1648 827 1648 912 1731 c 5,2,-1
 1637 1731 l 5,3,-1
 1726 1653 l 21,4,5
 1726 1653 1726 1653 1637 1567 c 5,6,-1
 912 1567 l 5,7,-1
 827 1648 l 5,0,1
512 262 m 1025,8,-1
512 6 m 1,9,-1
 256 134 l 1,10,11
 255 133 255 133 512 262 c 1,12,-1
 1152 262 l 1,13,-1
 1152 1242 l 1,14,-1
 1280 1498 l 1,15,-1
 1408 1242 l 1,16,17
 1408 1241 1408 1241 1408 262 c 1,18,-1
 2048 262 l 1,19,-1
 2304 134 l 1,20,-1
 2048 6 l 1,21,-1
 512 6 l 1,9,-1
EndSplineSet
EndChar

StartChar: uni1E62
Encoding: 7778 7778 130
Width: 2559
Flags: W
LayerCount: 3
Fore
SplineSet
827 1648 m 5,0,1
 827 1648 827 1648 912 1731 c 5,2,-1
 1637 1731 l 5,3,-1
 1726 1653 l 21,4,5
 1726 1653 1726 1653 1637 1567 c 5,6,-1
 912 1567 l 5,7,-1
 827 1648 l 5,0,1
512 6 m 1,8,-1
 256 134 l 1,9,10
 255 133 255 133 512 262 c 1,11,-1
 1152 262 l 1,12,-1
 1152 774 l 1,13,-1
 256 774 l 1,14,15
 255 774 255 774 512 902 c 1,16,-1
 1024 902 l 1,17,-1
 1152 1030 l 1,18,-1
 1152 1242 l 1,19,-1
 1280 1498 l 1,20,-1
 1408 1242 l 1,21,-1
 1408 1030 l 1,22,-1
 2304 1030 l 1,23,-1
 2048 902 l 1,24,-1
 1536 902 l 1,25,-1
 1408 774 l 1,26,27
 1408 773 1408 773 1408 262 c 1,28,-1
 2048 262 l 1,29,-1
 2304 134 l 1,30,-1
 2048 6 l 1,31,-1
 512 6 l 1,8,-1
EndSplineSet
EndChar

StartChar: uni1E44
Encoding: 7748 7748 131
Width: 2559
Flags: W
LayerCount: 3
Fore
SplineSet
827 1479 m 1,0,1
 827 1479 827 1479 912 1562 c 1,2,-1
 1637 1562 l 1,3,-1
 1726 1484 l 17,4,5
 1726 1484 1726 1484 1637 1398 c 1,6,-1
 912 1398 l 1,7,-1
 827 1479 l 1,0,1
1152 -244 m 1,8,-1
 1024 12 l 1,9,-1
 709 362 l 1,10,11
 710 362 710 362 1536 886 c 1,12,-1
 1536 1042 l 1,13,-1
 1024 1042 l 1,14,-1
 768 786 l 1,15,-1
 512 786 l 1,16,-1
 256 914 l 1,17,18
 255 914 255 914 512 1042 c 1,19,-1
 768 1042 l 1,20,-1
 1024 1298 l 1,21,-1
 2048 1298 l 1,22,-1
 2304 1170 l 1,23,-1
 2048 1042 l 1,24,-1
 1792 1042 l 1,25,-1
 1792 786 l 1,26,-1
 1024 268 l 1,27,-1
 1280 12 l 1,28,-1
 1152 -244 l 1,29,-1
 1152 -244 l 1,8,-1
EndSplineSet
EndChar

StartChar: uni1E45
Encoding: 7749 7749 132
Width: 2559
Flags: W
LayerCount: 3
Fore
SplineSet
1276 1476 m 1,0,1
 1276 1476 1276 1476 1193 1560 c 1,2,-1
 1195 1641 l 5,3,-1
 1272 1730 l 21,4,5
 1272 1730 1272 1730 1358 1641 c 5,6,-1
 1357 1560 l 1,7,-1
 1276 1476 l 1,0,1
827 1479 m 1,8,9
 827 1479 827 1479 912 1562 c 1,10,-1
 1637 1562 l 1,11,-1
 1726 1484 l 17,12,13
 1726 1484 1726 1484 1637 1398 c 1,14,-1
 912 1398 l 1,15,-1
 827 1479 l 1,8,9
1152 -244 m 1,16,-1
 1024 12 l 1,17,-1
 709 362 l 1,18,19
 710 362 710 362 1536 886 c 1,20,-1
 1536 1042 l 1,21,-1
 1024 1042 l 1,22,-1
 768 786 l 1,23,-1
 512 786 l 1,24,-1
 256 914 l 1,25,26
 255 914 255 914 512 1042 c 1,27,-1
 768 1042 l 1,28,-1
 1024 1298 l 1,29,-1
 2048 1298 l 1,30,-1
 2304 1170 l 1,31,-1
 2048 1042 l 1,32,-1
 1792 1042 l 1,33,-1
 1792 786 l 1,34,-1
 1024 268 l 1,35,-1
 1280 12 l 1,36,-1
 1152 -244 l 1,16,-1
EndSplineSet
EndChar

StartChar: uni1E46
Encoding: 7750 7750 133
Width: 2559
Flags: W
LayerCount: 3
Fore
SplineSet
302 101 m 1,0,1
 302 101 302 101 471 184 c 1,2,-1
 1923 184 l 1,3,-1
 2100 106 l 17,4,5
 2100 106 2100 106 1923 20 c 1,6,-1
 471 20 l 1,7,-1
 302 101 l 1,0,1
1152 -244 m 1,8,-1
 1024 12 l 1,9,-1
 768 268 l 1,10,-1
 1536 786 l 5,11,-1
 1536 1042 l 5,12,-1
 1024 1042 l 5,13,-1
 768 786 l 5,14,-1
 512 786 l 5,15,-1
 256 914 l 5,16,17
 255 914 255 914 512 1042 c 5,18,-1
 768 1042 l 5,19,-1
 1024 1298 l 5,20,-1
 2048 1298 l 5,21,-1
 2304 1170 l 5,22,-1
 2048 1042 l 5,23,-1
 1792 1042 l 5,24,-1
 1792 786 l 5,25,-1
 1024 268 l 1,26,-1
 1280 12 l 1,27,-1
 1152 -244 l 1,28,-1
 1152 -244 l 1,8,-1
EndSplineSet
EndChar

StartChar: uni1E47
Encoding: 7751 7751 134
Width: 2559
Flags: W
LayerCount: 3
Fore
SplineSet
302 101 m 1,0,1
 302 101 302 101 471 184 c 1,2,-1
 1923 184 l 1,3,-1
 2100 106 l 17,4,5
 2100 106 2100 106 1923 20 c 1,6,-1
 471 20 l 1,7,-1
 302 101 l 1,0,1
1024 12 m 1025,8,-1
1280 12 m 1025,9,-1
1205 390 m 1,10,-1
 576 389 l 1,11,-1
 832 517 l 1,12,-1
 1138 518 l 1,13,-1
 1316 638 l 1,14,-1
 1864 639 l 1,15,-1
 1608 511 l 1,16,-1
 1382 509 l 1,17,-1
 1205 390 l 1,10,-1
1152 -244 m 1,18,-1
 1024 12 l 1,19,-1
 768 268 l 1,20,-1
 1536 786 l 1,21,-1
 1536 1042 l 1,22,-1
 1024 1042 l 1,23,-1
 768 786 l 1,24,-1
 512 786 l 1,25,-1
 256 914 l 1,26,27
 255 914 255 914 512 1042 c 1,28,-1
 768 1042 l 1,29,-1
 1024 1298 l 1,30,-1
 2048 1298 l 1,31,-1
 2304 1170 l 1,32,-1
 2048 1042 l 1,33,-1
 1792 1042 l 1,34,-1
 1792 786 l 1,35,-1
 1024 268 l 1,36,-1
 1280 12 l 1,37,-1
 1152 -244 l 1,38,-1
 1152 -244 l 1,18,-1
EndSplineSet
EndChar

StartChar: uni1E48
Encoding: 7752 7752 135
Width: 2559
Flags: W
LayerCount: 3
Fore
SplineSet
527 1451 m 5,0,1
 527 1451 527 1451 653 1534 c 5,2,-1
 1742 1534 l 5,3,-1
 1876 1456 l 21,4,5
 1876 1456 1876 1456 1742 1370 c 5,6,-1
 653 1370 l 5,7,-1
 527 1451 l 5,0,1
1068 1362 m 1029,8,-1
1261 1362 m 1029,9,-1
1068 1362 m 1029,10,-1
1261 1362 m 1029,11,-1
302 101 m 1,12,13
 302 101 302 101 471 184 c 1,14,-1
 1923 184 l 1,15,-1
 2100 106 l 17,16,17
 2100 106 2100 106 1923 20 c 1,18,-1
 471 20 l 1,19,-1
 302 101 l 1,12,13
1024 12 m 1025,20,-1
1280 12 m 1025,21,-1
1205 390 m 1,22,-1
 576 389 l 1,23,-1
 832 517 l 1,24,-1
 1138 518 l 1,25,-1
 1316 638 l 1,26,-1
 1864 639 l 1,27,-1
 1608 511 l 1,28,-1
 1382 509 l 1,29,-1
 1205 390 l 1,22,-1
1152 -244 m 1,30,-1
 1024 12 l 1,31,-1
 768 268 l 1,32,-1
 1536 786 l 1,33,-1
 1536 1042 l 1,34,-1
 1024 1042 l 1,35,-1
 768 786 l 1,36,-1
 512 786 l 1,37,-1
 256 914 l 1,38,39
 255 914 255 914 512 1042 c 1,40,-1
 768 1042 l 1,41,-1
 1024 1298 l 1,42,-1
 2048 1298 l 1,43,-1
 2304 1170 l 1,44,-1
 2048 1042 l 1,45,-1
 1792 1042 l 1,46,-1
 1792 786 l 1,47,-1
 1024 268 l 1,48,-1
 1280 12 l 1,49,-1
 1152 -244 l 1,50,-1
 1152 -244 l 1,30,-1
EndSplineSet
EndChar

StartChar: uni1E49
Encoding: 7753 7753 136
Width: 2559
Flags: W
LayerCount: 3
Fore
SplineSet
2052 -98 m 1,0,1
 2052 -98 2052 -98 1969 -13 c 1,2,-1
 1969 713 l 1,3,-1
 2047 801 l 17,4,5
 2047 801 2047 801 2133 713 c 1,6,-1
 2133 -13 l 1,7,-1
 2052 -98 l 1,0,1
1152 -244 m 1,8,-1
 1024 12 l 1,9,-1
 709 362 l 1,10,11
 710 362 710 362 1536 886 c 1,12,-1
 1536 1042 l 1,13,-1
 1024 1042 l 1,14,-1
 768 786 l 1,15,-1
 512 786 l 1,16,-1
 256 914 l 1,17,18
 255 914 255 914 512 1042 c 1,19,-1
 768 1042 l 1,20,-1
 1024 1298 l 1,21,-1
 2048 1298 l 1,22,-1
 2304 1170 l 1,23,-1
 2048 1042 l 1,24,-1
 1792 1042 l 1,25,-1
 1792 786 l 1,26,-1
 1024 268 l 1,27,-1
 1280 12 l 1,28,-1
 1152 -244 l 1,29,-1
 1152 -244 l 1,8,-1
EndSplineSet
EndChar

StartChar: uni1E4A
Encoding: 7754 7754 137
Width: 2559
Flags: W
LayerCount: 3
Fore
SplineSet
2133 366 m 1,0,-1
 2055 244 l 1,1,-1
 1659 370 l 5,2,-1
 2055 500 l 1,3,-1
 2133 366 l 1,4,-1
 2133 366 l 1,0,-1
2052 -98 m 1,5,6
 2052 -98 2052 -98 1969 -13 c 1,7,-1
 1969 713 l 1,8,-1
 2047 801 l 17,9,10
 2047 801 2047 801 2133 713 c 1,11,-1
 2133 -13 l 1,12,-1
 2052 -98 l 1,5,6
1152 -244 m 1,13,-1
 1024 12 l 1,14,-1
 709 362 l 1,15,16
 710 362 710 362 1536 886 c 1,17,-1
 1536 1042 l 1,18,-1
 1024 1042 l 1,19,-1
 768 786 l 1,20,-1
 512 786 l 1,21,-1
 256 914 l 1,22,23
 255 914 255 914 512 1042 c 1,24,-1
 768 1042 l 1,25,-1
 1024 1298 l 1,26,-1
 2048 1298 l 1,27,-1
 2304 1170 l 1,28,-1
 2048 1042 l 1,29,-1
 1792 1042 l 1,30,-1
 1792 786 l 1,31,-1
 1024 268 l 1,32,-1
 1280 12 l 1,33,-1
 1152 -244 l 1,34,-1
 1152 -244 l 1,13,-1
EndSplineSet
EndChar

StartChar: uni1E4B
Encoding: 7755 7755 138
Width: 2559
Flags: W
LayerCount: 3
Fore
SplineSet
1216 -119 m 1,0,-1
 1146 7 l 1,1,-1
 1024 268 l 5,2,-1
 1146 199 l 1,3,-1
 1210 135 l 1,4,-1
 1274 7 l 1,5,-1
 1658 7 l 1,6,-1
 1914 263 l 1,7,-1
 1914 647 l 1,8,-1
 1978 775 l 1,9,-1
 2042 647 l 1,10,-1
 2042 263 l 1,11,-1
 1658 -121 l 1,12,-1
 1216 -119 l 1,0,-1
1152 -244 m 1,13,-1
 1024 12 l 1,14,-1
 709 362 l 1,15,16
 710 362 710 362 1536 886 c 1,17,-1
 1536 1042 l 1,18,-1
 1024 1042 l 1,19,-1
 768 786 l 1,20,-1
 512 786 l 1,21,-1
 256 914 l 1,22,23
 255 914 255 914 512 1042 c 1,24,-1
 768 1042 l 1,25,-1
 1024 1298 l 1,26,-1
 2048 1298 l 1,27,-1
 2304 1170 l 1,28,-1
 2048 1042 l 1,29,-1
 1792 1042 l 1,30,-1
 1792 786 l 1,31,-1
 1024 268 l 1,32,-1
 1280 12 l 1,33,-1
 1152 -244 l 1,34,-1
 1152 -244 l 1,13,-1
EndSplineSet
EndChar
